<?xml version="1.0" encoding="UTF-8"?>
<!--Generator: Apple Native CoreSVG 175.5-->
<!DOCTYPE svg
PUBLIC "-//W3C//DTD SVG 1.1//EN"
       "http://www.w3.org/Graphics/SVG/1.1/DTD/svg11.dtd">
<svg version="1.1" xmlns="http://www.w3.org/2000/svg" xmlns:xlink="http://www.w3.org/1999/xlink" width="3300" height="2200">
 <!--glyph: "", point size: 100.0, font version: "18.0d12e2", template writer version: "101"-->
 <g id="Notes">
  <rect height="2200" id="artboard" style="fill:white;opacity:1" width="3300" x="0" y="0"/>
  <line style="fill:none;stroke:black;opacity:1;stroke-width:0.5;" x1="263" x2="3036" y1="292" y2="292"/>
  <text style="stroke:none;fill:black;font-family:sans-serif;font-size:13;font-weight:bold;" transform="matrix(1 0 0 1 263 322)">Weight/Scale Variations</text>
  <text style="stroke:none;fill:black;font-family:sans-serif;font-size:13;text-anchor:middle;" transform="matrix(1 0 0 1 559.711 322)">Ultralight</text>
  <text style="stroke:none;fill:black;font-family:sans-serif;font-size:13;text-anchor:middle;" transform="matrix(1 0 0 1 856.422 322)">Thin</text>
  <text style="stroke:none;fill:black;font-family:sans-serif;font-size:13;text-anchor:middle;" transform="matrix(1 0 0 1 1153.13 322)">Light</text>
  <text style="stroke:none;fill:black;font-family:sans-serif;font-size:13;text-anchor:middle;" transform="matrix(1 0 0 1 1449.84 322)">Regular</text>
  <text style="stroke:none;fill:black;font-family:sans-serif;font-size:13;text-anchor:middle;" transform="matrix(1 0 0 1 1746.56 322)">Medium</text>
  <text style="stroke:none;fill:black;font-family:sans-serif;font-size:13;text-anchor:middle;" transform="matrix(1 0 0 1 2043.27 322)">Semibold</text>
  <text style="stroke:none;fill:black;font-family:sans-serif;font-size:13;text-anchor:middle;" transform="matrix(1 0 0 1 2339.98 322)">Bold</text>
  <text style="stroke:none;fill:black;font-family:sans-serif;font-size:13;text-anchor:middle;" transform="matrix(1 0 0 1 2636.69 322)">Heavy</text>
  <text style="stroke:none;fill:black;font-family:sans-serif;font-size:13;text-anchor:middle;" transform="matrix(1 0 0 1 2933.4 322)">Black</text>
  <line style="fill:none;stroke:black;opacity:1;stroke-width:0.5;" x1="263" x2="3036" y1="1903" y2="1903"/>
  <g transform="matrix(1 0 0 1 263 1933)">
   <path d="M9.24805 0.830078C13.5547 0.830078 17.1387-2.74414 17.1387-7.05078C17.1387-11.3574 13.5449-14.9316 9.23828-14.9316C4.94141-14.9316 1.36719-11.3574 1.36719-7.05078C1.36719-2.74414 4.95117 0.830078 9.24805 0.830078ZM9.24805-0.654297C5.70312-0.654297 2.87109-3.49609 2.87109-7.05078C2.87109-10.6055 5.69336-13.4473 9.23828-13.4473C12.793-13.4473 15.6445-10.6055 15.6445-7.05078C15.6445-3.49609 12.8027-0.654297 9.24805-0.654297ZM5.6543-7.05078C5.6543-6.62109 5.95703-6.32812 6.40625-6.32812L8.50586-6.32812L8.50586-4.20898C8.50586-3.76953 8.79883-3.4668 9.22852-3.4668C9.67773-3.4668 9.9707-3.76953 9.9707-4.20898L9.9707-6.32812L12.0898-6.32812C12.5293-6.32812 12.832-6.62109 12.832-7.05078C12.832-7.49023 12.5293-7.79297 12.0898-7.79297L9.9707-7.79297L9.9707-9.90234C9.9707-10.3516 9.67773-10.6543 9.22852-10.6543C8.79883-10.6543 8.50586-10.3516 8.50586-9.90234L8.50586-7.79297L6.40625-7.79297C5.95703-7.79297 5.6543-7.49023 5.6543-7.05078Z"/>
  </g>
  <g transform="matrix(1 0 0 1 281.867 1933)">
   <path d="M11.709 2.91016C17.1582 2.91016 21.6699-1.61133 21.6699-7.05078C21.6699-12.5 17.1484-17.0117 11.6992-17.0117C6.25977-17.0117 1.74805-12.5 1.74805-7.05078C1.74805-1.61133 6.26953 2.91016 11.709 2.91016ZM11.709 1.25C7.09961 1.25 3.41797-2.44141 3.41797-7.05078C3.41797-11.6602 7.08984-15.3516 11.6992-15.3516C16.3086-15.3516 20.0098-11.6602 20.0098-7.05078C20.0098-2.44141 16.3184 1.25 11.709 1.25ZM7.17773-7.05078C7.17773-6.57227 7.50977-6.25 8.00781-6.25L10.8789-6.25L10.8789-3.36914C10.8789-2.88086 11.2109-2.53906 11.6895-2.53906C12.1777-2.53906 12.5195-2.87109 12.5195-3.36914L12.5195-6.25L15.4004-6.25C15.8887-6.25 16.2305-6.57227 16.2305-7.05078C16.2305-7.53906 15.8887-7.88086 15.4004-7.88086L12.5195-7.88086L12.5195-10.752C12.5195-11.25 12.1777-11.5918 11.6895-11.5918C11.2109-11.5918 10.8789-11.25 10.8789-10.752L10.8789-7.88086L8.00781-7.88086C7.50977-7.88086 7.17773-7.53906 7.17773-7.05078Z"/>
  </g>
  <g transform="matrix(1 0 0 1 305.646 1933)">
   <path d="M14.9707 5.66406C21.9336 5.66406 27.6953-0.0976562 27.6953-7.05078C27.6953-14.0137 21.9238-19.7754 14.9609-19.7754C8.00781-19.7754 2.25586-14.0137 2.25586-7.05078C2.25586-0.0976562 8.01758 5.66406 14.9707 5.66406ZM14.9707 3.84766C8.93555 3.84766 4.08203-1.01562 4.08203-7.05078C4.08203-13.0957 8.92578-17.9492 14.9609-17.9492C21.0059-17.9492 25.8691-13.0957 25.8691-7.05078C25.8691-1.01562 21.0156 3.84766 14.9707 3.84766ZM9.19922-7.05078C9.19922-6.5332 9.57031-6.17188 10.1172-6.17188L14.0625-6.17188L14.0625-2.2168C14.0625-1.67969 14.4336-1.29883 14.9512-1.29883C15.4883-1.29883 15.8594-1.66992 15.8594-2.2168L15.8594-6.17188L19.8145-6.17188C20.3516-6.17188 20.7324-6.5332 20.7324-7.05078C20.7324-7.59766 20.3613-7.96875 19.8145-7.96875L15.8594-7.96875L15.8594-11.9141C15.8594-12.4609 15.4883-12.8418 14.9512-12.8418C14.4336-12.8418 14.0625-12.4609 14.0625-11.9141L14.0625-7.96875L10.1172-7.96875C9.57031-7.96875 9.19922-7.59766 9.19922-7.05078Z"/>
  </g>
  <text style="stroke:none;fill:black;font-family:sans-serif;font-size:13;font-weight:bold;" transform="matrix(1 0 0 1 263 1953)">Design Variations</text>
  <text style="stroke:none;fill:black;font-family:sans-serif;font-size:13;" transform="matrix(1 0 0 1 263 1971)">Symbols are supported in up to nine weights and three scales.</text>
  <text style="stroke:none;fill:black;font-family:sans-serif;font-size:13;" transform="matrix(1 0 0 1 263 1989)">For optimal layout with text and other symbols, vertically align</text>
  <text style="stroke:none;fill:black;font-family:sans-serif;font-size:13;" transform="matrix(1 0 0 1 263 2007)">symbols with the adjacent text.</text>
  <line style="fill:none;stroke:#00AEEF;stroke-width:0.5;opacity:1.0;" x1="776" x2="776" y1="1919" y2="1933"/>
  <g transform="matrix(1 0 0 1 776 1933)">
   <path d="M3.31055 0.15625C3.82812 0.15625 4.08203-0.0390625 4.26758-0.585938L5.52734-4.0332L11.2891-4.0332L12.5488-0.585938C12.7344-0.0390625 12.9883 0.15625 13.4961 0.15625C14.0137 0.15625 14.3457-0.15625 14.3457-0.644531C14.3457-0.810547 14.3164-0.966797 14.2383-1.17188L9.6582-13.3691C9.43359-13.9648 9.0332-14.2676 8.4082-14.2676C7.80273-14.2676 7.39258-13.9746 7.17773-13.3789L2.59766-1.16211C2.51953-0.957031 2.49023-0.800781 2.49023-0.634766C2.49023-0.146484 2.80273 0.15625 3.31055 0.15625ZM6.00586-5.51758L8.37891-12.0898L8.42773-12.0898L10.8008-5.51758Z"/>
  </g>
  <line style="fill:none;stroke:#00AEEF;stroke-width:0.5;opacity:1.0;" x1="793.197" x2="793.197" y1="1919" y2="1933"/>
  <text style="stroke:none;fill:black;font-family:sans-serif;font-size:13;font-weight:bold;" transform="matrix(1 0 0 1 776 1953)">Margins</text>
  <text style="stroke:none;fill:black;font-family:sans-serif;font-size:13;" transform="matrix(1 0 0 1 776 1971)">Leading and trailing margins on the left and right side of each symbol</text>
  <text style="stroke:none;fill:black;font-family:sans-serif;font-size:13;" transform="matrix(1 0 0 1 776 1989)">can be adjusted by modifying the x-location of the margin guidelines.</text>
  <text style="stroke:none;fill:black;font-family:sans-serif;font-size:13;" transform="matrix(1 0 0 1 776 2007)">Modifications are automatically applied proportionally to all</text>
  <text style="stroke:none;fill:black;font-family:sans-serif;font-size:13;" transform="matrix(1 0 0 1 776 2025)">scales and weights.</text>
  <g transform="matrix(1 0 0 1 1289 1933)">
   <path d="M2.8418 1.86523L4.54102 3.57422C5.40039 4.44336 6.38672 4.38477 7.31445 3.35938L18.0078-8.42773L17.041-9.4043L6.42578 2.27539C6.07422 2.67578 5.74219 2.77344 5.27344 2.30469L4.10156 1.14258C3.63281 0.683594 3.74023 0.341797 4.14062-0.0195312L15.6152-10.8203L14.6387-11.7871L3.04688-0.898438C2.06055 0.0195312 1.98242 0.996094 2.8418 1.86523ZM9.25781-16.3281C8.83789-15.918 8.80859-15.3418 9.04297-14.9512C9.27734-14.5898 9.73633-14.3555 10.3809-14.5215C11.8457-14.8633 13.3691-14.9219 14.7949-13.9844L14.209-12.5293C13.8672-11.6992 14.043-11.1133 14.5801-10.5664L16.875-8.25195C17.3633-7.76367 17.7734-7.74414 18.3398-7.8418L19.4043-8.03711L20.0684-7.36328L20.0293-6.80664C19.9902-6.30859 20.1172-5.92773 20.6055-5.44922L21.3672-4.70703C21.8457-4.22852 22.4609-4.19922 22.9297-4.66797L25.8398-7.58789C26.3086-8.05664 26.2891-8.65234 25.8105-9.13086L25.0391-9.89258C24.5605-10.3711 24.1895-10.5273 23.7109-10.4883L23.1348-10.4395L22.4902-11.0742L22.7344-12.1973C22.8613-12.7637 22.7051-13.2031 22.1191-13.7891L19.9219-15.9766C16.582-19.2969 12.1484-19.2188 9.25781-16.3281ZM10.752-15.957C13.1836-17.7344 16.4746-17.4316 18.7012-15.2051L21.1328-12.793C21.3672-12.5586 21.4062-12.373 21.3379-12.0312L21.0156-10.5469L22.5195-9.0625L23.5059-9.12109C23.7598-9.13086 23.8379-9.11133 24.0332-8.91602L24.6094-8.33984L22.168-5.89844L21.5918-6.47461C21.3965-6.66992 21.3672-6.74805 21.377-7.01172L21.4453-7.98828L19.9512-9.47266L18.4277-9.21875C18.1055-9.15039 17.959-9.17969 17.7148-9.41406L15.7129-11.416C15.459-11.6504 15.4297-11.8164 15.5859-12.1875L16.4648-14.2773C14.9023-15.7324 12.8711-16.3574 10.8398-15.7617C10.6836-15.7227 10.625-15.8496 10.752-15.957Z"/>
  </g>
  <text style="stroke:none;fill:black;font-family:sans-serif;font-size:13;font-weight:bold;" transform="matrix(1 0 0 1 1289 1953)">Exporting</text>
  <text style="stroke:none;fill:black;font-family:sans-serif;font-size:13;" transform="matrix(1 0 0 1 1289 1971)">Symbols should be outlined when exporting to ensure the</text>
  <text style="stroke:none;fill:black;font-family:sans-serif;font-size:13;" transform="matrix(1 0 0 1 1289 1989)">design is preserved when submitting to Xcode.</text>
  <text id="template-version" style="stroke:none;fill:black;font-family:sans-serif;font-size:13;text-anchor:end;" transform="matrix(1 0 0 1 3036 1933)">Template v.4.0</text>
  <text style="stroke:none;fill:black;font-family:sans-serif;font-size:13;text-anchor:end;" transform="matrix(1 0 0 1 3036 1951)">Requires Xcode 14 or greater</text>
  <text id="descriptive-name" style="stroke:none;fill:black;font-family:sans-serif;font-size:13;text-anchor:end;" transform="matrix(1 0 0 1 3036 1969)">Generated from custom.person.3</text>
  <text style="stroke:none;fill:black;font-family:sans-serif;font-size:13;text-anchor:end;" transform="matrix(1 0 0 1 3036 1987)">Typeset at 100 points</text>
  <text style="stroke:none;fill:black;font-family:sans-serif;font-size:13;" transform="matrix(1 0 0 1 263 726)">Small</text>
  <text style="stroke:none;fill:black;font-family:sans-serif;font-size:13;" transform="matrix(1 0 0 1 263 1156)">Medium</text>
  <text style="stroke:none;fill:black;font-family:sans-serif;font-size:13;" transform="matrix(1 0 0 1 263 1586)">Large</text>
 </g>
 <g id="Guides">
  <g id="H-reference" style="fill:#27AAE1;stroke:none;" transform="matrix(1 0 0 1 339 696)">
   <path d="M0.993654 0L3.63775 0L29.3281-67.1323L30.0303-67.1323L30.0303-70.459L28.1226-70.459ZM11.6885-24.4799L46.9815-24.4799L46.2315-26.7285L12.4385-26.7285ZM55.1196 0L57.7637 0L30.6382-70.459L29.4326-70.459L29.4326-67.1323Z"/>
  </g>
  <line id="Baseline-S" style="fill:none;stroke:#27AAE1;opacity:1;stroke-width:0.5;" x1="263" x2="3036" y1="696" y2="696"/>
  <line id="Capline-S" style="fill:none;stroke:#27AAE1;opacity:1;stroke-width:0.5;" x1="263" x2="3036" y1="625.541" y2="625.541"/>
  <g id="H-reference" style="fill:#27AAE1;stroke:none;" transform="matrix(1 0 0 1 339 1126)">
   <path d="M0.993654 0L3.63775 0L29.3281-67.1323L30.0303-67.1323L30.0303-70.459L28.1226-70.459ZM11.6885-24.4799L46.9815-24.4799L46.2315-26.7285L12.4385-26.7285ZM55.1196 0L57.7637 0L30.6382-70.459L29.4326-70.459L29.4326-67.1323Z"/>
  </g>
  <line id="Baseline-M" style="fill:none;stroke:#27AAE1;opacity:1;stroke-width:0.5;" x1="263" x2="3036" y1="1126" y2="1126"/>
  <line id="Capline-M" style="fill:none;stroke:#27AAE1;opacity:1;stroke-width:0.5;" x1="263" x2="3036" y1="1055.54" y2="1055.54"/>
  <g id="H-reference" style="fill:#27AAE1;stroke:none;" transform="matrix(1 0 0 1 339 1556)">
   <path d="M0.993654 0L3.63775 0L29.3281-67.1323L30.0303-67.1323L30.0303-70.459L28.1226-70.459ZM11.6885-24.4799L46.9815-24.4799L46.2315-26.7285L12.4385-26.7285ZM55.1196 0L57.7637 0L30.6382-70.459L29.4326-70.459L29.4326-67.1323Z"/>
  </g>
  <line id="Baseline-L" style="fill:none;stroke:#27AAE1;opacity:1;stroke-width:0.5;" x1="263" x2="3036" y1="1556" y2="1556"/>
  <line id="Capline-L" style="fill:none;stroke:#27AAE1;opacity:1;stroke-width:0.5;" x1="263" x2="3036" y1="1485.54" y2="1485.54"/>
  <line id="left-margin-Regular-M" style="fill:none;stroke:#00AEEF;stroke-width:0.5;opacity:1.0;" x1="1344.06" x2="1344.06" y1="1030.79" y2="1150.12"/>
  <line id="right-margin-Regular-M" style="fill:none;stroke:#00AEEF;stroke-width:0.5;opacity:1.0;" x1="1555.63" x2="1555.63" y1="1030.79" y2="1150.12"/>
 </g>
 <g id="Symbols">
  <g id="Black-L" transform="matrix(1 0 0 1 2793.36 1556)">
   <path d="M101.83 26.4107L178.275 26.4107C190.518 26.4107 196.671 22.0753 196.671 13.0556C196.671-6.6601 172.675-27.3942 140.052-27.3942C107.452-27.3942 83.4351-6.6601 83.4351 13.0556C83.4351 22.0753 89.6086 26.4107 101.83 26.4107ZM102.822 10.7055C101.93 10.7055 101.664 10.2162 101.664 9.58537C101.664 2.36919 115.867-11.6902 140.052-11.6902C164.239-11.6902 178.443 2.36919 178.443 9.58537C178.443 10.2162 178.176 10.7055 177.284 10.7055ZM140.055-33.4102C156.115-33.4102 168.847-47.211 168.847-64.4624C168.847-81.2345 155.937-95.0069 140.055-95.0069C124.234-95.0069 111.202-81.1708 111.263-64.4208C111.324-47.1913 124.017-33.4102 140.055-33.4102ZM140.055-49.1154C133.05-49.1154 127.155-55.6436 127.155-64.4791C127.095-72.7173 133.167-79.3018 140.055-79.3018C147.021-79.3018 152.955-72.7601 152.955-64.4624C152.955-55.7437 147.16-49.1154 140.055-49.1154ZM32.1355 26.4691L79.264 26.4691C74.4401 23.4508 72.0819 16.4109 72.6465 11.0027L34.3821 11.0027C33.5681 11.0027 33.3246 10.4891 33.3246 9.95349C33.3246-0.726255 47.5348-12.0118 65.5654-12.0118C69.8146-12.0118 76.6024-10.7448 80.007-9.42527C82.471-14.1934 86.1474-18.1983 91.5478-21.4191C84.079-25.0208 73.5315-27.3613 65.5654-27.3613C38.2701-27.3613 16.084-8.67231 16.084 12.3019C16.084 21.4044 21.4021 26.4691 32.1355 26.4691ZM65.5886-32.0224C79.6208-32.0224 90.8659-44.195 90.8659-59.3983C90.8659-74.1403 79.4436-86.2889 65.5886-86.2889C51.7168-86.2889 40.232-74.0182 40.2928-59.3775C40.3536-44.1157 51.5576-32.0224 65.5886-32.0224ZM65.5886-47.4522C60.2488-47.4522 55.7227-52.5513 55.7227-59.3775C55.6642-65.6607 60.3288-70.8589 65.5886-70.8589C70.8108-70.8589 75.4569-65.7036 75.4569-59.3983C75.4569-52.5513 70.9869-47.4522 65.5886-47.4522ZM247.937 26.4691C258.672 26.4691 263.99 21.4044 263.99 12.3019C263.99-8.67231 241.803-27.3613 214.506-27.3613C206.542-27.3613 195.994-25.0208 188.526-21.4191C193.924-18.1983 197.602-14.1934 200.065-9.42527C203.492-10.7448 210.258-12.0118 214.506-12.0118C232.537-12.0118 246.749-0.726255 246.749 9.95349C246.749 10.4891 246.505 11.0027 245.691 11.0027L207.426 11.0027C207.991 16.4109 205.633 23.4508 200.81 26.4691ZM214.483-32.0224C228.516-32.0224 239.719-44.1157 239.78-59.3775C239.841-74.0182 228.356-86.2889 214.483-86.2889C200.63-86.2889 189.207-74.1403 189.207-59.3983C189.207-44.195 200.452-32.0224 214.483-32.0224ZM214.483-47.4522C209.085-47.4522 204.617-52.5513 204.617-59.3983C204.617-65.7036 209.263-70.8589 214.483-70.8589C219.745-70.8589 224.409-65.6607 224.35-59.3775C224.35-52.5513 219.824-47.4522 214.483-47.4522Z"/>
  </g>
  <g id="Heavy-L" transform="matrix(1 0 0 1 2497.51 1556)">
   <path d="M100.548 25.8244L177.784 25.8244C189.532 25.8244 195.363 21.7857 195.363 13.2993C195.363-5.65438 172.129-27.1046 139.166-27.1046C106.24-27.1046 82.9748-5.65438 82.9748 13.2993C82.9748 21.7857 88.8361 25.8244 100.548 25.8244ZM100.668 11.7192C99.5191 11.7192 99.1366 11.2321 99.1366 10.391C99.1366 2.32367 113.82-13.005 139.166-13.005C164.518-13.005 179.202 2.32367 179.202 10.391C179.202 11.2321 178.819 11.7192 177.665 11.7192ZM139.177-33.7923C154.973-33.7923 167.549-47.4496 167.549-64.4495C167.549-81.0363 154.857-94.5479 139.177-94.5479C123.588-94.5479 110.756-80.9401 110.811-64.3892C110.867-47.425 123.417-33.7923 139.177-33.7923ZM139.177-47.8975C131.588-47.8975 125.188-54.9904 125.188-64.4338C125.132-73.369 131.654-80.4428 139.177-80.4428C146.776-80.4428 153.172-73.435 153.172-64.4495C153.172-55.0954 146.872-47.8975 139.177-47.8975ZM31.2871 25.869L79.1265 25.869C74.7659 23.1921 72.4463 16.9767 72.9496 11.9939L32.6656 11.9939C31.6804 11.9939 31.3336 11.4597 31.3336 10.7012C31.3336-1.22772 46.4262-13.3267 65.1247-13.3267C70.3375-13.3267 77.286-11.8759 81.3568-9.94959C83.6861-14.1298 87.0084-17.6842 91.7526-20.5822C84.1062-24.6468 73.7146-27.1125 65.1247-27.1125C38.0046-27.1125 16.084-8.28006 16.084 12.6239C16.084 21.2019 21.1301 25.869 31.2871 25.869ZM65.1661-32.395C78.938-32.395 90.0116-44.4193 90.0116-59.3942C90.0116-73.9459 78.822-85.8706 65.1661-85.8706C51.526-85.8706 40.2458-73.8052 40.3016-59.3641C40.3574-44.3444 51.3998-32.395 65.1661-32.395ZM65.1661-46.2613C59.1953-46.2613 54.1679-51.9257 54.1679-59.3641C54.1232-66.2932 59.2466-72.0043 65.1661-72.0043C71.0711-72.0043 76.1755-66.3592 76.1755-59.3942C76.1755-51.9257 71.1816-46.2613 65.1661-46.2613ZM247.059 25.869C257.216 25.869 262.262 21.2019 262.262 12.6239C262.262-8.28006 240.342-27.1125 213.215-27.1125C204.631-27.1125 194.24-24.6468 186.594-20.5822C191.332-17.6842 194.659-14.1298 196.983-9.94959C201.09-11.8759 208.008-13.3267 213.215-13.3267C231.914-13.3267 247.012-1.22772 247.012 10.7012C247.012 11.4597 246.665 11.9939 245.68 11.9939L205.396 11.9939C205.899 16.9767 203.58 23.1921 199.22 25.869ZM213.174-32.395C226.946-32.395 237.988-44.3444 238.044-59.3641C238.1-73.8052 226.82-85.8706 213.174-85.8706C199.525-85.8706 188.334-73.9459 188.334-59.3942C188.334-44.4193 199.408-32.395 213.174-32.395ZM213.174-46.2613C207.159-46.2613 202.171-51.9257 202.171-59.3942C202.171-66.3592 207.275-72.0043 213.174-72.0043C219.1-72.0043 224.223-66.2932 224.178-59.3641C224.178-51.9257 219.145-46.2613 213.174-46.2613Z"/>
  </g>
  <g id="Bold-L" transform="matrix(1 0 0 1 2201.84 1556)">
   <path d="M98.9054 25.0722L177.289 25.0722C188.332 25.0722 193.734 21.3948 193.734 13.5692C193.734-4.52132 171.371-26.7137 138.097-26.7137C104.876-26.7137 82.4732-4.52132 82.4732 13.5692C82.4732 21.3948 87.9129 25.0722 98.9054 25.0722ZM98.1729 13.0165C96.5898 13.0165 96.0389 12.4997 96.0389 11.3377C96.0389 2.1282 111.366-14.6713 138.097-14.6713C164.842-14.6713 180.169 2.1282 180.169 11.3377C180.169 12.4997 179.618 13.0165 178.022 13.0165ZM138.124-34.209C153.589-34.209 165.935-47.6522 165.935-64.3521C165.935-80.6861 153.52-93.8899 138.124-93.8899C122.841-93.8899 110.269-80.5589 110.325-64.2762C110.381-47.6275 122.709-34.209 138.124-34.209ZM138.124-46.2647C129.753-46.2647 122.722-54.0643 122.722-64.3054C122.667-74.1088 129.779-81.8343 138.124-81.8343C146.535-81.8343 153.538-74.198 153.538-64.3521C153.538-54.1695 146.6-46.2647 138.124-46.2647ZM30.1749 25.1014L79.1065 25.1014C75.3444 22.8546 73.1083 17.6685 73.4975 13.2605L30.649 13.2605C29.3518 13.2605 28.8522 12.666 28.8522 11.5563C28.8522-1.91716 44.9987-14.9929 64.5568-14.9929C71.0054-14.9929 78.2729-13.267 83.1585-10.5281C85.289-13.9784 88.151-16.9645 92.0807-19.448C84.2115-24.1186 73.9301-26.7753 64.5568-26.7753C37.555-26.7753 16.084-7.72886 16.084 12.9787C16.084 20.9111 20.7697 25.1014 30.1749 25.1014ZM64.6212-32.8039C78.0779-32.8039 88.914-44.614 88.914-59.3121C88.914-73.6108 78.0088-85.2663 64.6212-85.2663C51.2804-85.2663 40.2612-73.4544 40.3169-59.2741C40.3725-44.5468 51.1778-32.8039 64.6212-32.8039ZM64.6212-44.6668C57.8294-44.6668 52.1797-51.0304 52.1797-59.2741C52.1504-67.0248 57.8648-73.4034 64.6212-73.4034C71.3864-73.4034 77.0892-67.114 77.0892-59.3121C77.0892-51.0304 71.4422-44.6668 64.6212-44.6668ZM246.094 25.1014C255.5 25.1014 260.186 20.9111 260.186 12.9787C260.186-7.72886 238.715-26.7753 211.699-26.7753C202.339-26.7753 192.058-24.1186 184.189-19.448C188.105-16.9645 190.98-13.9784 193.097-10.5281C198.035-13.267 205.264-14.9929 211.699-14.9929C231.257-14.9929 247.417-1.91716 247.417 11.5563C247.417 12.666 246.917 13.2605 245.62 13.2605L202.771 13.2605C203.161 17.6685 200.924 22.8546 197.163 25.1014ZM211.635-32.8039C225.092-32.8039 235.897-44.5468 235.952-59.2741C236.008-73.4544 224.989-85.2663 211.635-85.2663C198.261-85.2663 187.355-73.6108 187.355-59.3121C187.355-44.614 198.191-32.8039 211.635-32.8039ZM211.635-44.6668C204.814-44.6668 199.181-51.0304 199.181-59.3121C199.181-67.114 204.883-73.4034 211.635-73.4034C218.405-73.4034 224.119-67.0248 224.09-59.2741C224.09-51.0304 218.427-44.6668 211.635-44.6668Z"/>
  </g>
  <g id="Semibold-L" transform="matrix(1 0 0 1 1905.85 1556)">
   <path d="M97.773 24.5536L176.947 24.5536C187.505 24.5536 192.612 21.1253 192.612 13.7553C192.612-3.7402 170.848-26.4442 137.36-26.4442C103.935-26.4442 82.1274-3.7402 82.1274 13.7553C82.1274 21.1253 87.2765 24.5536 97.773 24.5536ZM96.4529 13.9109C94.5703 13.9109 93.9034 13.3735 93.9034 11.9904C93.9034 1.99344 109.675-15.8199 137.36-15.8199C165.065-15.8199 180.836 1.99344 180.836 11.9904C180.836 13.3735 180.169 13.9109 178.268 13.9109ZM137.397-34.4963C152.635-34.4963 164.823-47.792 164.823-64.285C164.823-80.4446 152.598-93.4363 137.397-93.4363C122.326-93.4363 109.934-80.296 109.99-64.1983C110.045-47.7671 122.221-34.4963 137.397-34.4963ZM137.397-45.139C128.487-45.139 121.023-53.4259 121.023-64.2169C120.967-74.6188 128.487-82.7936 137.397-82.7936C146.37-82.7936 153.79-74.724 153.79-64.285C153.79-53.5311 146.413-45.139 137.397-45.139ZM29.4081 24.5722L79.0927 24.5722C75.7433 22.6218 73.5646 18.1455 73.8752 14.1337L29.2587 14.1337C27.7466 14.1337 27.1415 13.4976 27.1415 12.1458C27.1415-2.39245 44.0145-16.1416 64.1652-16.1416C71.4658-16.1416 78.9532-14.226 84.4006-10.9269C86.3941-13.874 88.9386-16.4683 92.3068-18.6661C84.2841-23.7545 74.0787-26.5429 64.1652-26.5429C37.245-26.5429 16.084-7.34886 16.084 13.2233C16.084 20.7107 20.5212 24.5722 29.4081 24.5722ZM64.2455-33.0858C77.4849-33.0858 88.1574-44.7482 88.1574-59.2555C88.1574-73.3797 77.4482-84.8497 64.2455-84.8497C51.1111-84.8497 40.2718-73.2126 40.3274-59.2121C40.3829-44.6862 51.0247-33.0858 64.2455-33.0858ZM64.2455-43.5675C56.8878-43.5675 50.809-50.4131 50.809-59.2121C50.7904-67.5291 56.9121-74.3679 64.2455-74.3679C71.6037-74.3679 77.7191-67.6344 77.7191-59.2555C77.7191-50.4131 71.6219-43.5675 64.2455-43.5675ZM245.429 24.5722C254.317 24.5722 258.754 20.7107 258.754 13.2233C258.754-7.34886 237.593-26.5429 210.654-26.5429C200.759-26.5429 190.554-23.7545 182.531-18.6661C185.881-16.4683 188.444-13.874 190.418-10.9269C195.928-14.226 203.372-16.1416 210.654-16.1416C230.804-16.1416 247.696-2.39245 247.696 12.1458C247.696 13.4976 247.091 14.1337 245.579 14.1337L200.962 14.1337C201.273 18.1455 199.094 22.6218 195.745 24.5722ZM210.573-33.0858C223.813-33.0858 234.455-44.6862 234.51-59.2121C234.566-73.2126 223.727-84.8497 210.573-84.8497C197.39-84.8497 186.68-73.3797 186.68-59.2555C186.68-44.7482 197.353-33.0858 210.573-33.0858ZM210.573-43.5675C203.197-43.5675 197.119-50.4131 197.119-59.2555C197.119-67.6344 203.234-74.3679 210.573-74.3679C217.926-74.3679 224.048-67.5291 224.029-59.2121C224.029-50.4131 217.932-43.5675 210.573-43.5675Z"/>
  </g>
  <g id="Medium-L" transform="matrix(1 0 0 1 1609.68 1556)">
   <path d="M96.9143 24.1604L176.688 24.1604C186.878 24.1604 191.76 20.921 191.76 13.8964C191.76-3.14791 170.452-26.2399 136.802-26.2399C103.222-26.2399 81.8653-3.14791 81.8653 13.8964C81.8653 20.921 86.794 24.1604 96.9143 24.1604ZM95.1487 14.589C93.0391 14.589 92.2841 14.0361 92.2841 12.4852C92.2841 1.89127 108.392-16.6909 136.802-16.6909C165.234-16.6909 181.342 1.89127 181.342 12.4852C181.342 14.0361 180.587 14.589 178.455 14.589ZM136.846-34.7141C151.911-34.7141 163.98-47.8979 163.98-64.2341C163.98-80.2616 151.899-93.0923 136.846-93.0923C121.936-93.0923 109.68-80.0968 109.735-64.1393C109.791-47.8729 121.851-34.7141 136.846-34.7141ZM136.846-44.2855C127.528-44.2855 119.734-52.9418 119.734-64.1498C119.678-75.0055 127.507-83.5209 136.846-83.5209C146.244-83.5209 153.981-75.1228 153.981-64.2341C153.981-53.0471 146.271-44.2855 136.846-44.2855ZM28.8267 24.1709L79.0822 24.1709C76.0457 22.4454 73.9106 18.5071 74.1616 14.7958L28.2046 14.7958C26.5294 14.7958 25.8444 14.1281 25.8444 12.5928C25.8444-2.75284 43.2683-17.0126 63.8684-17.0126C71.8149-17.0126 79.4691-14.9532 85.3424-11.2293C87.2319-13.7949 89.5359-16.0921 92.4783-18.0732C84.3392-23.4784 74.1913-26.3666 63.8684-26.3666C37.01-26.3666 16.084-7.06073 16.084 13.4088C16.084 20.5587 20.3328 24.1709 28.8267 24.1709ZM63.9607-33.2995C77.0352-33.2995 87.5836-44.8499 87.5836-59.2126C87.5836-73.2046 77.0232-84.5337 63.9607-84.5337C50.9827-84.5337 40.2799-73.0292 40.3353-59.1651C40.3907-44.792 50.9087-33.2995 63.9607-33.2995ZM63.9607-42.734C56.1739-42.734 49.7697-49.9451 49.7697-59.1651C49.7592-67.9115 56.1898-75.0992 63.9607-75.0992C71.7685-75.0992 78.1967-68.0289 78.1967-59.2126C78.1967-49.9451 71.7581-42.734 63.9607-42.734ZM244.925 24.1709C253.419 24.1709 257.668 20.5587 257.668 13.4088C257.668-7.06073 236.743-26.3666 209.861-26.3666C199.561-26.3666 189.413-23.4784 181.274-18.0732C184.194-16.0921 186.52-13.7949 188.387-11.2293C194.33-14.9532 201.937-17.0126 209.861-17.0126C230.461-17.0126 247.908-2.75284 247.908 12.5928C247.908 14.1281 247.223 14.7958 245.547 14.7958L199.59 14.7958C199.842 18.5071 197.706 22.4454 194.67 24.1709ZM209.769-33.2995C222.843-33.2995 233.361-44.792 233.417-59.1651C233.473-73.0292 222.77-84.5337 209.769-84.5337C196.73-84.5337 186.168-73.2046 186.168-59.2126C186.168-44.8499 196.717-33.2995 209.769-33.2995ZM209.769-42.734C201.972-42.734 195.556-49.9451 195.556-59.2126C195.556-68.0289 201.984-75.0992 209.769-75.0992C217.563-75.0992 223.993-67.9115 223.983-59.1651C223.983-49.9451 217.556-42.734 209.769-42.734Z"/>
  </g>
  <g id="Regular-L" transform="matrix(1 0 0 1 1313.68 1556)">
   <path d="M95.7943 23.6475L176.351 23.6475C186.061 23.6475 190.65 20.6545 190.65 14.0805C190.65-2.37537 169.935-25.9734 136.073-25.9734C102.292-25.9734 81.5233-2.37537 81.5233 14.0805C81.5233 20.6545 86.1646 23.6475 95.7943 23.6475ZM93.4476 15.4735C91.0418 15.4735 90.1721 14.9004 90.1721 13.1307C90.1721 1.75799 106.719-17.827 136.073-17.827C165.454-17.827 182.001 1.75799 182.001 13.1307C182.001 14.9004 181.132 15.4735 178.698 15.4735ZM136.128-34.9982C150.968-34.9982 162.88-48.0361 162.88-64.1677C162.88-80.0228 150.988-92.6437 136.128-92.6437C121.427-92.6437 109.349-79.8368 109.404-64.0623C109.459-48.011 121.369-34.9982 136.128-34.9982ZM136.128-43.1722C126.276-43.1722 118.053-52.3103 118.053-64.0623C117.997-75.5098 126.228-84.4696 136.128-84.4696C146.08-84.4696 154.231-75.643 154.231-64.1677C154.231-52.4158 146.086-43.1722 136.128-43.1722ZM28.0683 23.6475L79.0685 23.6475C76.4401 22.2152 74.362 18.9788 74.5352 15.6594L26.8296 15.6594C24.9417 15.6594 24.1525 14.9506 24.1525 13.1759C24.1525-3.22292 42.295-18.1487 63.4812-18.1487C72.2703-18.1487 80.1419-15.9016 86.5709-11.6237C88.3248-13.6916 90.3149-15.6014 92.702-17.2999C84.411-23.1183 74.3383-26.1367 63.4812-26.1367C36.7034-26.1367 16.084-6.68491 16.084 13.6507C16.084 20.3605 20.0871 23.6475 28.0683 23.6475ZM63.5892-33.5783C76.4487-33.5783 86.8353-44.9827 86.8353-59.1566C86.8353-72.976 76.4688-84.1217 63.5892-84.1217C50.8152-84.1217 40.2904-72.7901 40.3457-59.1038C40.401-44.9299 50.7573-33.5783 63.5892-33.5783ZM63.5892-41.6468C55.2426-41.6468 48.4141-49.3347 48.4141-59.1038C48.4141-68.4104 55.2476-76.0532 63.5892-76.0532C71.9835-76.0532 78.8196-68.5436 78.8196-59.1566C78.8196-49.3347 71.9358-41.6468 63.5892-41.6468ZM244.268 23.6475C252.249 23.6475 256.252 20.3605 256.252 13.6507C256.252-6.68491 235.633-26.1367 208.827-26.1367C197.998-26.1367 187.926-23.1183 179.634-17.2999C181.994-15.6014 184.012-13.6916 185.737-11.6237C192.247-15.9016 200.066-18.1487 208.827-18.1487C230.013-18.1487 248.184-3.22292 248.184 13.1759C248.184 14.9506 247.395 15.6594 245.507 15.6594L197.801 15.6594C197.974 18.9788 195.896 22.2152 193.268 23.6475ZM208.719-33.5783C221.579-33.5783 231.935-44.9299 231.991-59.1038C232.046-72.7901 221.521-84.1217 208.719-84.1217C195.868-84.1217 185.501-72.976 185.501-59.1566C185.501-44.9827 195.887-33.5783 208.719-33.5783ZM208.719-41.6468C200.373-41.6468 193.517-49.3347 193.517-59.1566C193.517-68.5436 200.353-76.0532 208.719-76.0532C217.089-76.0532 223.923-68.4104 223.923-59.1038C223.923-49.3347 217.066-41.6468 208.719-41.6468Z"/>
  </g>
  <g id="Light-L" transform="matrix(1 0 0 1 1017.48 1556)">
   <path d="M94.3056 22.9604L176.732 22.9604C185.373 22.9604 189.466 20.1774 189.466 14.0614C189.466-2.31813 168.885-25.4963 135.519-25.4963C102.234-25.4963 81.6187-2.31813 81.6187 14.0614C81.6187 20.1774 85.7447 22.9604 94.3056 22.9604ZM92.8369 16.6377C89.3814 16.6377 88.2445 15.8356 88.2445 13.4552C88.2445 0.727359 105.555-19.2202 135.519-19.2202C165.53-19.2202 182.841 0.727359 182.841 13.4552C182.841 15.8356 181.704 16.6377 178.202 16.6377ZM135.613-34.9219C150.204-34.9219 161.735-47.5781 161.735-63.5761C161.735-79.1067 150.072-91.6131 135.613-91.6131C121.255-91.6131 109.444-78.9589 109.537-63.5088C109.631-47.5911 121.101-34.9219 135.613-34.9219ZM135.613-41.2446C124.845-41.2446 116.163-50.9171 116.163-63.5088C116.07-75.5862 124.93-85.2903 135.613-85.2903C146.329-85.2903 155.109-75.7003 155.109-63.5761C155.109-50.9844 146.448-41.2446 135.613-41.2446ZM26.9041 22.9604L80.0228 22.9604C77.9669 21.8717 76.175 19.3987 76.0238 16.7855L26.1426 16.7855C23.3958 16.7855 22.3393 15.8094 22.3393 13.3094C22.3393-4.13902 40.9591-19.5419 62.9468-19.5419C72.8619-19.5419 81.726-16.7986 88.6512-11.5664C90.0616-13.1191 91.5936-14.5707 93.4082-15.8876C84.9454-22.3358 74.4146-25.7168 62.9468-25.7168C35.6156-25.7168 16.084-5.88333 16.084 13.6125C16.084 19.9024 19.6863 22.9604 26.9041 22.9604ZM63.0739-33.521C75.7617-33.521 85.8238-44.5819 85.8238-58.6031C85.8238-72.1363 75.629-83.1483 63.0739-83.1483C50.5862-83.1483 40.2904-71.9885 40.3839-58.5694C40.4773-44.5482 50.4328-33.521 63.0739-33.521ZM63.0739-39.7764C53.9066-39.7764 46.6392-47.9415 46.6392-58.5694C46.6392-68.5821 54.0262-76.8929 63.0739-76.8929C72.1553-76.8929 79.6021-68.6962 79.6021-58.6031C79.6021-47.9415 72.2412-39.7764 63.0739-39.7764ZM244.401 22.9604C251.619 22.9604 255.222 19.9024 255.222 13.6125C255.222-5.88333 235.691-25.7168 208.312-25.7168C196.891-25.7168 186.361-22.3358 177.897-15.8876C179.666-14.5707 181.244-13.1191 182.608-11.5664C189.613-16.7986 198.444-19.5419 208.312-19.5419C230.299-19.5419 248.967-4.13902 248.967 13.3094C248.967 15.8094 247.91 16.7855 245.163 16.7855L195.281 16.7855C195.131 19.3987 193.338 21.8717 191.283 22.9604ZM208.185-33.521C220.873-33.521 230.828-44.5482 230.922-58.5694C231.016-71.9885 220.72-83.1483 208.185-83.1483C195.677-83.1483 185.482-72.1363 185.482-58.6031C185.482-44.5819 195.544-33.521 208.185-33.521ZM208.185-39.7764C199.018-39.7764 191.704-47.9415 191.704-58.6031C191.704-68.6962 199.15-76.8929 208.185-76.8929C217.28-76.8929 224.667-68.5821 224.667-58.5694C224.667-47.9415 217.352-39.7764 208.185-39.7764Z"/>
  </g>
  <g id="Thin-L" transform="matrix(1 0 0 1 721.451 1556)">
   <path d="M92.3367 22.0517L177.237 22.0517C184.465 22.0517 187.901 19.5463 187.901 14.0361C187.901-2.24242 167.496-24.8653 134.787-24.8653C102.159-24.8653 81.7449-2.24242 81.7449 14.0361C81.7449 19.5463 85.1894 22.0517 92.3367 22.0517ZM92.0291 18.1775C87.1853 18.1775 85.695 17.0724 85.695 13.8843C85.695-0.635739 104.015-21.0629 134.787-21.0629C165.631-21.0629 183.952-0.635739 183.952 13.8843C183.952 17.0724 182.461 18.1775 177.545 18.1775ZM134.931-34.8209C149.195-34.8209 160.22-46.9723 160.22-62.7936C160.22-77.8952 148.86-90.25 134.931-90.25C121.028-90.25 109.57-77.7978 109.714-62.7768C109.858-47.0358 120.748-34.8209 134.931-34.8209ZM134.931-38.6953C122.951-38.6953 113.664-49.0745 113.664-62.7768C113.52-75.6872 123.214-86.3757 134.931-86.3757C146.657-86.3757 156.27-75.776 156.27-62.7936C156.27-49.0913 146.928-38.6953 134.931-38.6953ZM25.3643 22.0517L81.2849 22.0517C79.9862 21.4174 78.573 19.954 77.9927 18.2747L25.2339 18.2747C21.3512 18.2747 19.9413 16.9453 19.9413 13.4861C19.9413-5.35065 39.1921-21.3845 62.24-21.3845C73.6444-21.3845 83.8211-17.985 91.4025-11.4907C92.3586-12.3619 93.2848-13.2076 94.3421-14.0197C85.6522-21.3009 74.5155-25.1615 62.24-25.1615C34.1768-25.1615 16.084-4.82318 16.084 13.5621C16.084 19.2966 19.1562 22.0517 25.3643 22.0517ZM62.3923-33.4453C74.8529-33.4453 84.486-44.0518 84.486-57.8712C84.486-71.0257 74.5183-81.861 62.3923-81.861C50.2833-81.861 40.2904-70.9283 40.4343-57.8626C40.5783-44.0434 50.0037-33.4453 62.3923-33.4453ZM62.3923-37.3027C52.1397-37.3027 44.2917-46.0988 44.2917-57.8626C44.2917-68.8093 52.4107-78.0036 62.3923-78.0036C72.3825-78.0036 80.637-68.8981 80.637-57.8712C80.637-46.0988 72.6451-37.3027 62.3923-37.3027ZM244.578 22.0517C250.786 22.0517 253.859 19.2966 253.859 13.5621C253.859-4.82318 235.766-25.1615 207.631-25.1615C195.428-25.1615 184.291-21.3009 175.6-14.0197C176.586-13.2076 177.585-12.3619 178.468-11.4907C186.129-17.985 196.299-21.3845 207.631-21.3845C230.678-21.3845 250.002-5.35065 250.002 13.4861C250.002 16.9453 248.592 18.2747 244.709 18.2747L191.949 18.2747C191.37 19.954 189.956 21.4174 188.658 22.0517ZM207.479-33.4453C219.939-33.4453 229.364-44.0434 229.508-57.8626C229.653-70.9283 219.66-81.861 207.479-81.861C195.425-81.861 185.457-71.0257 185.457-57.8712C185.457-44.0518 195.09-33.4453 207.479-33.4453ZM207.479-37.3027C197.225-37.3027 189.306-46.0988 189.306-57.8712C189.306-68.8981 197.56-78.0036 207.479-78.0036C217.532-78.0036 225.651-68.8093 225.651-57.8626C225.651-46.0988 217.731-37.3027 207.479-37.3027Z"/>
  </g>
  <g id="Ultralight-L" transform="matrix(1 0 0 1 425.089 1556)">
   <path d="M91.3283 21.5863L177.495 21.5863C183.999 21.5863 187.099 19.2231 187.099 14.0232C187.099-2.20364 166.785-24.542 134.412-24.542C102.12-24.542 81.8095-2.20364 81.8095 14.0232C81.8095 19.2231 84.905 21.5863 91.3283 21.5863ZM91.6154 18.9661C86.0605 18.9661 84.3892 17.7059 84.3892 14.1041C84.3892-1.33391 103.226-22.0067 134.412-22.0067C165.682-22.0067 184.521-1.33391 184.521 14.1041C184.521 17.7059 182.849 18.9661 177.209 18.9661ZM134.582-34.7692C148.678-34.7692 159.445-46.662 159.445-62.3928C159.445-77.2746 148.24-89.5519 134.582-89.5519C120.911-89.5519 109.635-77.2031 109.805-62.4018C109.974-46.7514 120.567-34.7692 134.582-34.7692ZM134.582-37.3895C121.982-37.3895 112.384-48.1307 112.384-62.4018C112.215-75.7389 122.335-86.9316 134.582-86.9316C146.825-86.9316 156.865-75.8148 156.865-62.3928C156.865-48.1216 147.173-37.3895 134.582-37.3895ZM24.5757 21.5863L81.9313 21.5863C81.0205 21.1846 79.8012 20.2385 79.0012 19.0375L24.7685 19.0375C20.304 19.0375 18.7131 17.5271 18.7131 13.5766C18.7131-5.97123 38.2871-22.3283 61.878-22.3283C74.0452-22.3283 84.8942-18.5926 92.8118-11.4519C93.5351-11.9741 94.1511-12.5095 94.8204-13.063C86.0142-20.7708 74.5672-24.8771 61.878-24.8771C33.4398-24.8771 16.084-4.28018 16.084 13.5362C16.084 18.9864 18.8847 21.5863 24.5757 21.5863ZM62.0432-33.4065C74.3875-33.4065 83.8008-43.7803 83.8008-57.4962C83.8008-70.4568 73.9494-81.2016 62.0432-81.2016C50.1282-81.2016 40.2904-70.3853 40.4602-57.5006C40.63-43.7848 49.7839-33.4065 62.0432-33.4065ZM62.0432-36.0357C51.2347-36.0357 43.0893-45.1551 43.0893-57.5006C43.0893-68.9257 51.5833-78.5725 62.0432-78.5725C72.4988-78.5725 81.1671-69.0015 81.1671-57.4962C81.1671-45.1551 72.852-36.0357 62.0432-36.0357ZM244.669 21.5863C250.359 21.5863 253.161 18.9864 253.161 13.5362C253.161-4.28018 235.805-24.8771 207.282-24.8771C194.678-24.8771 183.23-20.7708 174.423-13.063C175.009-12.5095 175.71-11.9741 176.348-11.4519C184.345-18.5926 195.2-22.3283 207.282-22.3283C230.872-22.3283 250.532-5.97123 250.532 13.5766C250.532 17.5271 248.941 19.0375 244.476 19.0375L190.243 19.0375C189.443 20.2385 188.223 21.1846 187.313 21.5863ZM207.117-33.4065C219.46-33.4065 228.614-43.7848 228.784-57.5006C228.955-70.3853 219.117-81.2016 207.117-81.2016C195.296-81.2016 185.444-70.4568 185.444-57.4962C185.444-43.7803 194.857-33.4065 207.117-33.4065ZM207.117-36.0357C196.307-36.0357 188.078-45.1551 188.078-57.4962C188.078-69.0015 196.745-78.5725 207.117-78.5725C217.662-78.5725 226.156-68.9257 226.156-57.5006C226.156-45.1551 217.925-36.0357 207.117-36.0357Z"/>
  </g>
  <g id="Black-M" transform="matrix(1 0 0 1 2824.23 1126)">
   <path d="M79.7918 12.9365L138.59 12.9365C148.357 12.9365 153.333 9.35118 153.333 1.96699C153.333-13.9522 134.106-29.3434 109.191-29.3434C84.282-29.3434 65.0493-13.9522 65.0493 1.96699C65.0493 9.35118 70.0307 12.9365 79.7918 12.9365ZM81.4285-0.355256C80.8158-0.355256 80.6744-0.767162 80.6744-1.15796C80.6744-6.20073 91.3694-16.0513 109.191-16.0513C127.013-16.0513 137.708-6.20073 137.708-1.15796C137.708-0.767162 137.566-0.355256 136.954-0.355256ZM109.191-33.4813C121.826-33.4813 131.774-44.2449 131.774-57.8083C131.774-70.9177 121.616-81.7965 109.191-81.7965C96.7818-81.7965 86.5497-70.9015 86.6062-57.7974C86.6627-44.2391 96.56-33.4813 109.191-33.4813ZM109.191-46.7731C104.141-46.7731 99.9474-51.4178 99.9474-57.8544C99.8908-63.7231 104.295-68.5048 109.191-68.5048C114.149-68.5048 118.433-63.7338 118.433-57.8083C118.433-51.4859 114.308-46.7731 109.191-46.7731ZM25.4681 12.9936L61.6567 12.9936C57.5988 10.4084 55.7773 4.34908 56.2234-0.110683L28.0195-0.110683C27.4196-0.110683 27.2834-0.52722 27.2834-0.848819C27.2834-8.19153 37.599-16.3005 51.1026-16.3005C53.7191-16.3005 58.9743-15.4096 61.1066-14.7795C63.0847-18.909 66.1753-22.337 70.8456-25.0578C65.1886-27.5358 56.8209-29.2906 51.1026-29.2906C29.7302-29.2906 12.4609-14.883 12.4609 1.31317C12.4609 8.7591 16.7605 12.9936 25.4681 12.9936ZM51.1075-32.4167C62.1793-32.4167 70.9948-41.9284 70.9948-53.8825C70.9948-65.4285 61.9687-75.0149 51.1075-75.0149C40.2002-75.0149 31.1576-65.3553 31.2141-53.877C31.2706-41.8658 40.0355-32.4167 51.1075-32.4167ZM51.1075-45.4691C47.4016-45.4691 44.2665-48.9984 44.2665-53.877C44.2094-58.2856 47.5038-61.9624 51.1075-61.9624C54.6596-61.9624 57.948-58.2963 57.948-53.8825C57.948-48.9984 54.8705-45.4691 51.1075-45.4691ZM192.861 12.9936C201.569 12.9936 205.869 8.7591 205.869 1.31317C205.869-14.883 188.599-29.2906 167.226-29.2906C161.508-29.2906 153.14-27.5358 147.484-25.0578C152.154-22.337 155.244-18.909 157.223-14.7795C159.361-15.4096 164.61-16.3005 167.226-16.3005C180.731-16.3005 191.046-8.19153 191.046-0.848819C191.046-0.52722 190.909-0.110683 190.31-0.110683L162.105-0.110683C162.552 4.34908 160.73 10.4084 156.673 12.9936ZM167.221-32.4167C178.294-32.4167 187.058-41.8658 187.115-53.877C187.171-65.3553 178.129-75.0149 167.221-75.0149C156.361-75.0149 147.335-65.4285 147.335-53.8825C147.335-41.9284 156.15-32.4167 167.221-32.4167ZM167.221-45.4691C163.458-45.4691 160.382-48.9984 160.382-53.8825C160.382-58.2963 163.67-61.9624 167.221-61.9624C170.825-61.9624 174.119-58.2856 174.062-53.877C174.062-48.9984 170.928-45.4691 167.221-45.4691Z"/>
  </g>
  <g id="Heavy-M" transform="matrix(1 0 0 1 2528.32 1126)">
   <path d="M78.6761 12.4268L138.075 12.4268C147.456 12.4268 152.163 9.11209 152.163 2.20697C152.163-12.9743 133.669-29.1043 108.376-29.1043C83.1021-29.1043 64.5904-12.9743 64.5904 2.20697C64.5904 9.11209 69.3142 12.4268 78.6761 12.4268ZM79.3794 0.528348C78.6126 0.528348 78.3815 0.13966 78.3815-0.400337C78.3815-6.15015 89.4752-17.2082 108.376-17.2082C127.279-17.2082 138.373-6.15015 138.373-0.400337C138.373 0.13966 138.141 0.528348 137.373 0.528348ZM108.38-33.8619C120.781-33.8619 130.61-44.5204 130.61-57.8503C130.61-70.8085 120.644-81.4428 108.38-81.4428C96.1659-81.4428 86.1043-70.757 86.1525-57.8175C86.2006-44.5063 95.9987-33.8619 108.38-33.8619ZM108.38-45.7603C102.845-45.7603 98.1986-50.9078 98.1986-57.8611C98.1503-64.3531 102.935-69.5445 108.38-69.5445C113.885-69.5445 118.565-64.3882 118.565-57.8503C118.565-50.9842 113.992-45.7603 108.38-45.7603ZM24.7461 12.4704L61.4342 12.4704C57.7764 10.1872 55.9663 4.86347 56.3824 0.754332L26.4048 0.754332C25.7168 0.754332 25.5044 0.342422 25.5044-0.130236C25.5044-8.59724 36.6385-17.4574 50.7211-17.4574C54.1757-17.4574 59.4964-16.4326 62.2342-15.2973C64.1124-18.8997 66.899-21.9294 70.9806-24.3701C65.1658-27.2424 56.9929-29.0861 50.7211-29.0861C29.571-29.0861 12.4609-14.5735 12.4609 1.63145C12.4609 8.60342 16.5316 12.4704 24.7461 12.4704ZM50.742-32.7863C61.5752-32.7863 70.253-42.1846 70.253-53.9296C70.253-65.316 61.4385-74.6958 50.742-74.6958C40.0347-74.6958 31.1711-65.2209 31.2192-53.9132C31.2674-42.1245 39.9112-32.7863 50.742-32.7863ZM50.742-44.4774C46.495-44.4774 42.9103-48.5153 42.9103-53.9132C42.8666-58.888 46.5586-63.0047 50.742-63.0047C54.8983-63.0047 58.5783-58.9231 58.5783-53.9296C58.5783-48.5153 55.0327-44.4774 50.742-44.4774ZM191.99 12.4704C200.205 12.4704 204.275 8.60342 204.275 1.63145C204.275-14.5735 187.165-29.0861 166.012-29.0861C159.743-29.0861 151.57-27.2424 145.756-24.3701C149.834-21.9294 152.623-18.8997 154.499-15.2973C157.256-16.4326 162.56-17.4574 166.012-17.4574C180.095-17.4574 191.231-8.59724 191.231-0.130236C191.231 0.342422 191.019 0.754332 190.331 0.754332L160.353 0.754332C160.769 4.86347 158.959 10.1872 155.302 12.4704ZM165.991-32.7863C176.825-32.7863 185.468-42.1245 185.516-53.9132C185.565-65.2209 176.701-74.6958 165.991-74.6958C155.298-74.6958 146.483-65.316 146.483-53.9296C146.483-42.1846 155.16-32.7863 165.991-32.7863ZM165.991-44.4774C161.701-44.4774 158.158-48.5153 158.158-53.9296C158.158-58.9231 161.838-63.0047 165.991-63.0047C170.177-63.0047 173.869-58.888 173.825-53.9132C173.825-48.5153 170.239-44.4774 165.991-44.4774Z"/>
  </g>
  <g id="Bold-M" transform="matrix(1 0 0 1 2232.5 1126)">
   <path d="M77.428 11.8565L137.499 11.8565C146.449 11.8565 150.856 8.84463 150.856 2.47543C150.856-11.8804 133.18-28.8368 107.464-28.8368C81.7821-28.8368 64.0772-11.8804 64.0772 2.47543C64.0772 8.84463 68.5126 11.8565 77.428 11.8565ZM77.0872 1.51679C76.148 1.51679 75.8165 1.15407 75.8165 0.447178C75.8165-6.09358 87.3562-18.5022 107.464-18.5022C127.577-18.5022 139.117-6.09358 139.117 0.447178C139.117 1.15407 138.785 1.51679 137.841 1.51679ZM107.474-34.2876C119.611-34.2876 129.308-44.8286 129.308-57.8973C129.308-70.6862 119.557-81.0472 107.474-81.0472C95.4769-81.0472 85.6061-70.5952 85.6449-57.8401C85.6837-44.8051 95.3708-34.2876 107.474-34.2876ZM107.474-44.6273C101.394-44.6273 96.2422-50.3372 96.2422-57.8686C96.2034-65.058 101.415-70.7075 107.474-70.7075C113.591-70.7075 118.711-65.1204 118.711-57.8973C118.711-50.423 113.64-44.6273 107.474-44.6273ZM23.9386 11.8851L61.1853 11.8851C57.9751 9.93975 56.1777 5.43889 56.5603 1.72198L24.5985 1.72198C23.812 1.72198 23.5143 1.31524 23.5143 0.673604C23.5143-9.05107 35.564-18.7514 50.2943-18.7514C54.6864-18.7514 60.0804-17.5769 63.4956-15.8766C65.262-18.8892 67.7086-21.4735 71.1317-23.6007C65.1404-26.9141 57.1852-28.8574 50.2943-28.8574C29.3929-28.8574 12.4609-14.2273 12.4609 1.98749C12.4609 8.42926 16.2756 11.8851 23.9386 11.8851ZM50.3332-33.1998C60.8995-33.1998 69.4231-42.4712 69.4231-53.9824C69.4231-65.1902 60.8454-74.3389 50.3332-74.3389C39.8497-74.3389 31.1861-65.0707 31.2249-53.9537C31.2637-42.414 39.7721-33.1998 50.3332-33.1998ZM50.3332-43.3681C45.4808-43.3681 41.3932-47.9749 41.3932-53.9537C41.3646-59.5619 45.5012-64.1706 50.3332-64.1706C55.1652-64.1706 59.2835-59.6243 59.2835-53.9824C59.2835-47.9749 55.2141-43.3681 50.3332-43.3681ZM191.015 11.8851C198.678 11.8851 202.493 8.42926 202.493 1.98749C202.493-14.2273 185.561-28.8574 164.654-28.8574C157.768-28.8574 149.813-26.9141 143.822-23.6007C147.24-21.4735 149.691-18.8892 151.452-15.8766C154.902-17.5769 160.267-18.7514 164.654-18.7514C179.384-18.7514 191.439-9.05107 191.439 0.673604C191.439 1.31524 191.141 1.72198 190.355 1.72198L158.393 1.72198C158.776 5.43889 156.978 9.93975 153.768 11.8851ZM164.615-33.1998C175.181-33.1998 183.689-42.414 183.728-53.9537C183.767-65.0707 175.104-74.3389 164.615-74.3389C154.108-74.3389 145.53-65.1902 145.53-53.9824C145.53-42.4712 154.054-33.1998 164.615-33.1998ZM164.615-43.3681C159.734-43.3681 155.67-47.9749 155.67-53.9824C155.67-59.6243 159.788-64.1706 164.615-64.1706C169.452-64.1706 173.589-59.5619 173.56-53.9537C173.56-47.9749 169.468-43.3681 164.615-43.3681Z"/>
  </g>
  <g id="Semibold-M" transform="matrix(1 0 0 1 1936.4 1126)">
   <path d="M76.5676 11.4634L137.102 11.4634C145.754 11.4634 149.954 8.66025 149.954 2.66051C149.954-11.1263 132.843-28.6525 106.835-28.6525C80.8722-28.6525 63.7234-11.1263 63.7234 2.66051C63.7234 8.66025 67.9601 11.4634 76.5676 11.4634ZM75.5069 2.19821C74.4489 2.19821 74.0482 1.8534 74.0482 1.03145C74.0482-6.05457 85.8954-19.3944 106.835-19.3944C127.782-19.3944 139.63-6.05457 139.63 1.03145C139.63 1.8534 139.229 2.19821 138.164 2.19821ZM106.849-34.581C118.805-34.581 128.411-45.0411 128.411-57.9297C128.411-70.602 118.808-80.7745 106.849-80.7745C95.002-80.7745 85.2626-70.4837 85.295-57.8557C85.3274-45.0112 94.9379-34.581 106.849-34.581ZM106.849-43.8462C100.394-43.8462 94.8935-49.9439 94.8935-57.8738C94.8611-65.5439 100.366-71.5093 106.849-71.5093C113.388-71.5093 118.812-65.6251 118.812-57.9297C118.812-50.0361 113.397-43.8462 106.849-43.8462ZM23.3819 11.4816L61.0137 11.4816C58.112 9.76917 56.3235 5.83558 56.6829 2.38906L23.3533 2.38906C22.4988 2.38906 22.1423 1.9859 22.1423 1.22777C22.1423-9.36395 34.8233-19.6436 50.0001-19.6436C55.0385-19.6436 60.4831-18.3658 64.3652-16.276C66.0545-18.882 68.2668-21.1592 71.2358-23.0703C65.1229-26.6878 57.3178-28.6997 50.0001-28.6997C29.2702-28.6997 12.4609-13.9886 12.4609 2.23294C12.4609 8.30919 16.0991 11.4816 23.3819 11.4816ZM50.0513-33.4848C60.4336-33.4848 68.851-42.6688 68.851-54.0187C68.851-65.1034 60.4365-74.0929 50.0513-74.0929C39.7221-74.0929 31.1965-64.967 31.2289-53.9817C31.2612-42.6136 39.6762-33.4848 50.0513-33.4848ZM50.0513-42.6033C44.7817-42.6033 40.3473-47.6023 40.3473-53.9817C40.3291-60.0265 44.7723-64.9744 50.0513-64.9744C55.3492-64.9744 59.7696-60.1077 59.7696-54.0187C59.7696-47.6023 55.3392-42.6033 50.0513-42.6033ZM190.342 11.4816C197.626 11.4816 201.264 8.30919 201.264 2.23294C201.264-13.9886 184.455-28.6997 163.717-28.6997C156.407-28.6997 148.602-26.6878 142.489-23.0703C145.451-21.1592 147.67-18.882 149.352-16.276C153.279-18.3658 158.686-19.6436 163.717-19.6436C178.894-19.6436 191.582-9.36395 191.582 1.22777C191.582 1.9859 191.226 2.38906 190.371 2.38906L157.041 2.38906C157.401 5.83558 155.612 9.76917 152.711 11.4816ZM163.666-33.4848C174.048-33.4848 182.463-42.6136 182.496-53.9817C182.528-64.967 174.002-74.0929 163.666-74.0929C153.288-74.0929 144.873-65.1034 144.873-54.0187C144.873-42.6688 153.291-33.4848 163.666-33.4848ZM163.666-42.6033C158.378-42.6033 153.955-47.6023 153.955-54.0187C153.955-60.1077 158.375-64.9744 163.666-64.9744C168.953-64.9744 173.396-60.0265 173.377-53.9817C173.377-47.6023 168.936-42.6033 163.666-42.6033Z"/>
  </g>
  <g id="Medium-M" transform="matrix(1 0 0 1 1640.16 1126)">
   <path d="M75.9151 11.1653L136.801 11.1653C145.227 11.1653 149.27 8.52044 149.27 2.80084C149.27-10.5545 132.587-28.5126 106.358-28.5126C80.1822-28.5126 63.4551-10.5545 63.4551 2.80084C63.4551 8.52044 67.5411 11.1653 75.9151 11.1653ZM74.3087 2.71489C73.1605 2.71489 72.7074 2.38366 72.7074 1.47447C72.7074-6.025 84.7878-20.0708 106.358-20.0708C127.938-20.0708 140.018-6.025 140.018 1.47447C140.018 2.38366 139.565 2.71489 138.409 2.71489ZM106.376-34.8035C118.194-34.8035 127.73-45.2022 127.73-57.9543C127.73-70.5381 118.24-80.5677 106.376-80.5677C94.6418-80.5677 85.0022-70.3992 85.0297-57.8675C85.0572-45.1674 94.6097-34.8035 106.376-34.8035ZM106.376-43.254C99.636-43.254 93.8709-49.6457 93.8709-57.8777C93.8434-65.9123 99.5709-72.1173 106.376-72.1173C113.234-72.1173 118.889-66.0078 118.889-57.9543C118.889-49.7428 113.212-43.254 106.376-43.254ZM22.9597 11.1756L60.8836 11.1756C58.2159 9.63982 56.434 6.13637 56.7759 2.89488L22.4091 2.89488C21.5031 2.89488 21.102 2.49442 21.102 1.64795C21.102-9.60118 34.2616-20.32 49.777-20.32C55.3055-20.32 60.7884-18.964 65.0246-16.5788C66.6554-18.8766 68.69-20.9209 71.3148-22.6681C65.1096-26.5162 57.4183-28.5801 49.777-28.5801C29.1771-28.5801 12.4609-13.8076 12.4609 2.41905C12.4609 8.21816 15.9653 11.1756 22.9597 11.1756ZM49.8376-33.701C60.0803-33.701 68.4172-42.8186 68.4172-54.0462C68.4172-65.0377 60.1265-73.9063 49.8376-73.9063C39.6254-73.9063 31.2044-64.8885 31.2319-54.0028C31.2593-42.765 39.6035-33.701 49.8376-33.701ZM49.8376-42.0234C44.2515-42.0234 39.5543-47.3198 39.5543-54.0028C39.544-60.3787 44.2196-65.5838 49.8376-65.5838C55.4888-65.5838 60.1382-60.4742 60.1382-54.0462C60.1382-47.3198 55.434-42.0234 49.8376-42.0234ZM189.833 11.1756C196.828 11.1756 200.332 8.21816 200.332 2.41905C200.332-13.8076 183.616-28.5801 163.007-28.5801C155.374-28.5801 147.684-26.5162 141.478-22.6681C144.094-20.9209 146.137-18.8766 147.759-16.5788C152.048-18.964 157.487-20.32 163.007-20.32C178.522-20.32 191.691-9.60118 191.691 1.64795C191.691 2.49442 191.29 2.89488 190.384 2.89488L156.016 2.89488C156.359 6.13637 154.577 9.63982 151.91 11.1756ZM162.946-33.701C173.189-33.701 181.534-42.765 181.561-54.0028C181.589-64.8885 173.168-73.9063 162.946-73.9063C152.667-73.9063 144.375-65.0377 144.375-54.0462C144.375-42.8186 152.712-33.701 162.946-33.701ZM162.946-42.0234C157.351-42.0234 152.655-47.3198 152.655-54.0462C152.655-60.4742 157.304-65.5838 162.946-65.5838C168.574-65.5838 173.249-60.3787 173.239-54.0028C173.239-47.3198 168.533-42.0234 162.946-42.0234Z"/>
  </g>
  <g id="Regular-M" transform="matrix(1 0 0 1 1344.06 1126)">
   <path d="M75.0642 10.7765L136.409 10.7765C144.541 10.7765 148.379 8.33808 148.379 2.98388C148.379-9.80865 132.254-28.3303 105.737-28.3303C79.2822-28.3303 63.1051-9.80865 63.1051 2.98388C63.1051 8.33808 66.9946 10.7765 75.0642 10.7765ZM72.7458 3.38883C71.4801 3.38883 70.9585 3.07531 70.9585 2.05232C70.9585-5.98643 83.3431-20.9531 105.737-20.9531C128.141-20.9531 140.526-5.98643 140.526 2.05232C140.526 3.07531 140.004 3.38883 138.728 3.38883ZM105.758-35.0938C117.396-35.0938 126.842-45.4123 126.842-57.9863C126.842-70.4548 117.499-80.2979 105.758-80.2979C94.1721-80.2979 84.6625-70.2889 84.6836-57.8828C84.7047-45.3711 94.1816-35.0938 105.758-35.0938ZM105.758-42.4815C98.647-42.4815 92.537-49.2567 92.537-57.8828C92.516-66.3929 98.5339-72.9102 105.758-72.9102C113.033-72.9102 118.989-66.5069 118.989-57.9863C118.989-49.3601 112.972-42.4815 105.758-42.4815ZM22.4091 10.7765L60.7139 10.7765C58.3513 9.47112 56.5781 6.5287 56.8972 3.55463L21.1776 3.55463C20.2043 3.55463 19.7451 3.1577 19.7451 2.19603C19.7451-9.91061 33.529-21.2023 49.486-21.2023C55.6537-21.2023 61.1866-19.7443 65.8846-16.9737C67.4392-18.8695 69.242-20.6101 71.4178-22.1435C65.0922-26.2924 57.5495-28.4242 49.486-28.4242C29.0556-28.4242 12.4609-13.5716 12.4609 2.66181C12.4609 8.09941 15.7907 10.7765 22.4091 10.7765ZM49.5589-33.9828C59.6196-33.9828 67.8514-43.0141 67.8514-54.0822C67.8514-64.9519 59.7221-73.663 49.5589-73.663C39.4992-73.663 31.2147-64.786 31.2358-54.0304C31.2569-42.9623 39.5087-33.9828 49.5589-33.9828ZM49.5589-41.2671C43.5601-41.2671 38.5199-46.9513 38.5199-54.0304C38.5199-60.8382 43.4987-66.3788 49.5589-66.3788C55.6708-66.3788 60.619-60.9523 60.619-54.0822C60.619-46.9513 55.5577-41.2671 49.5589-41.2671ZM189.168 10.7765C195.787 10.7765 199.117 8.09941 199.117 2.66181C199.117-13.5716 182.523-28.4242 162.081-28.4242C154.028-28.4242 146.486-26.2924 140.16-22.1435C142.325-20.6101 144.138-18.8695 145.682-16.9737C150.443-19.7443 155.924-21.2023 162.081-21.2023C178.038-21.2023 191.833-9.91061 191.833 2.19603C191.833 3.1577 191.374 3.55463 190.4 3.55463L154.68 3.55463C154.999 6.5287 153.226 9.47112 150.864 10.7765ZM162.008-33.9828C172.069-33.9828 180.321-42.9623 180.342-54.0304C180.363-64.786 172.078-73.663 162.008-73.663C151.856-73.663 143.726-64.9519 143.726-54.0822C143.726-43.0141 151.958-33.9828 162.008-33.9828ZM162.008-41.2671C156.01-41.2671 150.959-46.9513 150.959-54.0822C150.959-60.9523 155.907-66.3788 162.008-66.3788C168.079-66.3788 173.058-60.8382 173.058-54.0304C173.058-46.9513 168.007-41.2671 162.008-41.2671Z"/>
  </g>
  <g id="Light-M" transform="matrix(1 0 0 1 1047.81 1126)">
   <path d="M73.7295 10.1605L136.751 10.1605C143.924 10.1605 147.318 7.91031 147.318 2.96677C147.318-9.75732 131.312-27.9025 105.24-27.9025C79.2309-27.9025 63.1907-9.75732 63.1907 2.96677C63.1907 7.91031 66.6181 10.1605 73.7295 10.1605ZM72.1982 4.4326C69.9914 4.4326 69.2303 3.91374 69.2303 2.3432C69.2303-6.91045 82.2993-22.2022 105.24-22.2022C128.209-22.2022 141.279-6.91045 141.279 2.3432C141.279 3.91374 140.517 4.4326 138.283 4.4326ZM105.296-35.0253C116.712-35.0253 125.816-45.0017 125.816-57.4558C125.816-69.6335 116.677-79.374 105.296-79.374C94.0181-79.374 84.7481-69.5018 84.8034-57.3866C84.8587-44.9947 93.942-35.0253 105.296-35.0253ZM105.296-40.7533C97.3637-40.7533 90.8431-48.0076 90.8431-57.3866C90.7878-66.4613 97.3703-73.646 105.296-73.646C113.256-73.646 119.776-66.5583 119.776-57.4558C119.776-48.0768 113.297-40.7533 105.296-40.7533ZM21.3653 10.1605L61.5695 10.1605C59.7202 9.16312 58.2037 6.90514 58.2319 4.56418L20.5616 4.56418C18.8184 4.56418 18.1196 3.9277 18.1196 2.3158C18.1196-10.7319 32.3313-22.4514 49.0069-22.4514C56.1841-22.4514 62.6068-20.5484 67.7497-16.9224C68.9963-18.3562 70.3885-19.6861 72.0508-20.8773C65.5714-25.5908 57.6179-28.0478 49.0069-28.0478C28.0803-28.0478 12.4609-12.8529 12.4609 2.62758C12.4609 7.68875 15.4314 10.1605 21.3653 10.1605ZM49.0969-33.9315C59.0036-33.9315 66.9445-42.6547 66.9445-53.586C66.9445-64.199 58.9692-72.7903 49.0969-72.7903C39.2939-72.7903 31.2147-64.0674 31.27-53.5513C31.3253-42.6201 39.2178-33.9315 49.0969-33.9315ZM49.0969-39.5902C42.3623-39.5902 36.9286-45.7022 36.9286-53.5513C36.9286-60.9922 42.4036-67.1317 49.0969-67.1317C55.8248-67.1317 61.3205-61.0892 61.3205-53.586C61.3205-45.7022 55.8315-39.5902 49.0969-39.5902ZM189.288 10.1605C195.222 10.1605 198.193 7.68875 198.193 2.62758C198.193-12.8529 182.574-28.0478 161.619-28.0478C153.036-28.0478 145.083-25.5908 138.603-20.8773C140.238-19.6861 141.657-18.3562 142.876-16.9224C148.081-20.5484 154.47-22.4514 161.619-22.4514C178.294-22.4514 192.534-10.7319 192.534 2.3158C192.534 3.9277 191.835 4.56418 190.092 4.56418L152.421 4.56418C152.45 6.90514 150.933 9.16312 149.084 10.1605ZM161.529-33.9315C171.436-33.9315 179.328-42.6201 179.384-53.5513C179.439-64.0674 171.36-72.7903 161.529-72.7903C151.685-72.7903 143.709-64.199 143.709-53.586C143.709-42.6547 151.65-33.9315 161.529-33.9315ZM161.529-39.5902C154.795-39.5902 149.333-45.7022 149.333-53.586C149.333-61.0892 154.829-67.1317 161.529-67.1317C168.25-67.1317 173.725-60.9922 173.725-53.5513C173.725-45.7022 168.264-39.5902 161.529-39.5902Z"/>
  </g>
  <g id="Thin-M" transform="matrix(1 0 0 1 751.706 1126)">
   <path d="M71.9643 9.34582L137.203 9.34582C143.11 9.34582 145.914 7.34454 145.914 2.94414C145.914-9.68945 130.068-27.3368 104.584-27.3368C79.163-27.3368 63.3038-9.68945 63.3038 2.94414C63.3038 7.34454 66.1203 9.34582 71.9643 9.34582ZM71.4741 5.81306C68.0226 5.81306 66.9446 5.02264 66.9446 2.72792C66.9446-8.13253 80.9189-23.8543 104.584-23.8543C128.299-23.8543 142.274-8.13253 142.274 2.72792C142.274 5.02264 141.196 5.81306 137.694 5.81306ZM104.685-34.9348C115.806-34.9348 124.458-44.4585 124.458-56.7543C124.458-68.5472 115.591-78.1519 104.685-78.1519C93.8144-78.1519 84.8612-68.4609 84.9619-56.7303C85.0624-44.4968 93.6252-34.9348 104.685-34.9348ZM104.685-38.4677C95.6664-38.4677 88.6027-46.3556 88.6027-56.7303C88.5021-66.5519 95.8314-74.6191 104.685-74.6191C113.55-74.6191 120.817-66.6261 120.817-56.7543C120.817-46.3795 113.727-38.4677 104.685-38.4677ZM19.9849 9.34582L62.701 9.34582C61.5306 8.75577 60.3536 7.40302 59.9971 5.89939L19.7469 5.89939C16.9853 5.89939 15.9696 4.94607 15.9696 2.47422C15.9696-11.8182 30.7471-24.1035 48.3733-24.1035C56.8857-24.1035 64.4852-21.6121 70.2165-16.8545C71.0557-17.6773 71.9048-18.464 72.8881-19.2026C66.205-24.663 57.7084-27.5499 48.3733-27.5499C26.7903-27.5499 12.4609-11.9025 12.4609 2.58232C12.4609 7.14562 14.9561 9.34582 19.9849 9.34582ZM48.4858-33.8636C58.1888-33.8636 65.7451-42.1795 65.7451-52.9297C65.7451-63.2033 57.9734-71.6362 48.4858-71.6362C39.0223-71.6362 31.2147-63.1169 31.3152-52.9176C31.4158-42.1675 38.8331-33.8636 48.4858-33.8636ZM48.4858-37.3724C40.7781-37.3724 34.8239-44.0502 34.8239-52.9176C34.8239-61.1959 40.9553-68.1274 48.4858-68.1274C56.0284-68.1274 62.2484-61.2702 62.2484-52.9297C62.2484-44.0502 56.1936-37.3724 48.4858-37.3724ZM189.446 9.34582C194.475 9.34582 196.971 7.14562 196.971 2.58232C196.971-11.9025 182.642-27.5499 161.008-27.5499C151.724-27.5499 143.227-24.663 136.543-19.2026C137.477-18.464 138.376-17.6773 139.165-16.8545C144.958-21.6121 152.546-24.1035 161.008-24.1035C178.634-24.1035 193.462-11.8182 193.462 2.47422C193.462 4.94607 192.446 5.89939 189.685 5.89939L149.434 5.89939C149.078 7.40302 147.9 8.75577 146.731 9.34582ZM160.896-33.8636C170.598-33.8636 178.016-42.1675 178.117-52.9176C178.217-63.1169 170.41-71.6362 160.896-71.6362C151.459-71.6362 143.686-63.2033 143.686-52.9297C143.686-42.1795 151.243-33.8636 160.896-33.8636ZM160.896-37.3724C153.187-37.3724 147.184-44.0502 147.184-52.9297C147.184-61.2702 153.403-68.1274 160.896-68.1274C168.477-68.1274 174.608-61.1959 174.608-52.9176C174.608-44.0502 168.603-37.3724 160.896-37.3724Z"/>
  </g>
  <g id="Ultralight-M" transform="matrix(1 0 0 1 455.308 1126)">
   <path d="M71.0602 8.92853L137.435 8.92853C142.692 8.92853 145.195 7.05476 145.195 2.93255C145.195-9.65468 129.43-27.047 104.248-27.047C79.1283-27.047 63.3617-9.65468 63.3617 2.93255C63.3617 7.05476 65.8653 8.92853 71.0602 8.92853ZM71.1031 6.52013C67.0141 6.52013 65.7739 5.59061 65.7739 2.92497C65.7739-8.75848 80.2118-24.7004 104.248-24.7004C128.346-24.7004 142.784-8.75848 142.784 2.92497C142.784 5.59061 141.544 6.52013 137.393 6.52013ZM104.372-34.8885C115.343-34.8885 123.762-44.1804 123.762-56.395C123.762-67.9909 115.035-77.526 104.372-77.526C93.7101-77.526 84.9191-67.9277 85.043-56.3942C85.1667-44.2418 93.4629-34.8885 104.372-34.8885ZM104.372-37.297C94.7971-37.297 87.4552-45.5094 87.4552-56.3942C87.3314-66.5983 95.0432-75.1175 104.372-75.1175C113.701-75.1175 121.35-66.6609 121.35-56.395C121.35-45.5102 113.947-37.297 104.372-37.297ZM19.2778 8.92853L63.2806 8.92853C62.4579 8.54713 61.4547 7.65803 60.9012 6.58327L19.3296 6.58327C16.0464 6.58327 14.8684 5.46768 14.8684 2.55536C14.8684-12.3746 29.9357-24.9496 48.0487-24.9496C57.245-24.9496 65.4472-22.1568 71.4799-16.8197C72.1105-17.3296 72.6814-17.838 73.317-18.3449C66.5296-24.1877 57.7548-27.2949 48.0487-27.2949C26.1296-27.2949 12.4609-11.4156 12.4609 2.55914C12.4609 6.86743 14.7127 8.92853 19.2778 8.92853ZM48.1728-33.8289C57.7716-33.8289 65.1308-41.9361 65.1308-52.5936C65.1308-62.6932 57.4634-71.045 48.1728-71.045C38.8832-71.045 31.2147-62.63 31.3384-52.5931C31.4621-41.9357 38.636-33.8289 48.1728-33.8289ZM48.1728-36.2364C39.9667-36.2364 33.7459-43.204 33.7459-52.5931C33.7459-61.3002 40.2134-68.6375 48.1728-68.6375C56.1328-68.6375 62.7236-61.3629 62.7236-52.5936C62.7236-43.204 56.3791-36.2364 48.1728-36.2364ZM189.528 8.92853C194.092 8.92853 196.345 6.86743 196.345 2.55914C196.345-11.4156 182.676-27.2949 160.695-27.2949C151.051-27.2949 142.276-24.1877 135.488-18.3449C136.063-17.838 136.696-17.3296 137.264-16.8197C143.358-22.1568 151.561-24.9496 160.695-24.9496C178.808-24.9496 193.938-12.3746 193.938 2.55536C193.938 5.46768 192.759 6.58327 189.476 6.58327L147.904 6.58327C147.351 7.65803 146.347 8.54713 145.525 8.92853ZM160.571-33.8289C170.17-33.8289 177.343-41.9357 177.467-52.5931C177.591-62.63 169.923-71.045 160.571-71.045C151.343-71.045 143.675-62.6932 143.675-52.5936C143.675-41.9361 151.034-33.8289 160.571-33.8289ZM160.571-36.2364C152.364-36.2364 146.082-43.204 146.082-52.5936C146.082-61.3629 152.673-68.6375 160.571-68.6375C168.593-68.6375 175.06-61.3002 175.06-52.5931C175.06-43.204 168.777-36.2364 160.571-36.2364Z"/>
  </g>
  <g id="Black-S" transform="matrix(1 0 0 1 2847.63 696)">
   <path d="M62.793 2.63672L108.789 2.63672C116.504 2.63672 120.459-0.244141 120.459-6.15234C120.459-18.8477 105.176-30.6641 85.791-30.6641C66.4062-30.6641 51.123-18.8477 51.123-6.15234C51.123-0.244141 55.0781 2.63672 62.793 2.63672ZM64.4043-8.10547C63.916-8.10547 63.8184-8.44727 63.8184-8.74023C63.8184-12.5488 72.1191-19.9219 85.791-19.9219C99.4629-19.9219 107.764-12.5488 107.764-8.74023C107.764-8.44727 107.666-8.10547 107.178-8.10547ZM85.791-33.7402C95.752-33.7402 103.564-42.1875 103.564-52.8809C103.564-63.1836 95.5566-71.7773 85.791-71.7773C76.0254-71.7773 67.9688-63.1836 68.0176-52.8809C68.0664-42.1875 75.8301-33.7402 85.791-33.7402ZM85.791-44.4824C81.9336-44.4824 78.7598-47.998 78.7598-52.9297C78.7109-57.373 82.0801-61.0352 85.791-61.0352C89.5508-61.0352 92.8223-57.373 92.8223-52.8809C92.8223-48.0469 89.6973-44.4824 85.791-44.4824ZM20.1172 2.68555L48.4375 2.68555C45.166 0.585938 43.75-4.3457 44.0918-7.91016L22.4121-7.91016C21.9238-7.91016 21.8262-8.25195 21.8262-8.49609C21.8262-13.9648 29.6875-20.1172 40.1367-20.1172C41.9922-20.1172 46.1426-19.4336 47.6562-19.043C49.2188-22.4121 51.709-25.1953 55.5176-27.3926C51.123-29.248 44.4824-30.6152 40.1367-30.6152C23.291-30.6152 9.76562-19.3359 9.76562-6.68945C9.76562-0.732422 13.1836 2.68555 20.1172 2.68555ZM40.1367-32.9102C48.877-32.9102 55.8105-40.3809 55.8105-49.8047C55.8105-58.8867 48.6816-66.4551 40.1367-66.4551C31.543-66.4551 24.4141-58.8379 24.4629-49.8047C24.5117-40.332 31.3965-32.9102 40.1367-32.9102ZM40.1367-43.457C37.3535-43.457 35.0098-46.0938 35.0098-49.8047C34.9609-53.125 37.4512-55.9082 40.1367-55.9082C42.7734-55.9082 45.2637-53.125 45.2637-49.8047C45.2637-46.0938 42.9688-43.457 40.1367-43.457ZM151.416 2.68555C158.35 2.68555 161.768-0.732422 161.768-6.68945C161.768-19.3359 148.242-30.6152 131.396-30.6152C127.051-30.6152 120.41-29.248 116.016-27.3926C119.824-25.1953 122.314-22.4121 123.877-19.043C125.391-19.4336 129.541-20.1172 131.396-20.1172C141.846-20.1172 149.707-13.9648 149.707-8.49609C149.707-8.25195 149.609-7.91016 149.121-7.91016L127.441-7.91016C127.783-4.3457 126.367 0.585938 123.096 2.68555ZM131.396-32.9102C140.137-32.9102 147.021-40.332 147.07-49.8047C147.119-58.8379 139.99-66.4551 131.396-66.4551C122.852-66.4551 115.723-58.8867 115.723-49.8047C115.723-40.3809 122.656-32.9102 131.396-32.9102ZM131.396-43.457C128.564-43.457 126.27-46.0938 126.27-49.8047C126.27-53.125 128.76-55.9082 131.396-55.9082C134.082-55.9082 136.572-53.125 136.523-49.8047C136.523-46.0938 134.18-43.457 131.396-43.457Z"/>
  </g>
  <g id="Heavy-S" transform="matrix(1 0 0 1 2551.54 696)">
   <path d="M62.0093 2.27946L108.305 2.27946C115.812 2.27946 119.595-0.393959 119.595-5.9449C119.595-18.0179 104.923-30.5143 85.1572-30.5143C65.4036-30.5143 50.7197-18.0179 50.7197-5.9449C50.7197-0.393959 54.5134 2.27946 62.0093 2.27946ZM62.7217-7.48315C62.2219-7.48315 62.0782-7.77885 62.0782-8.12943C62.0782-12.3875 70.6325-20.7517 85.1572-20.7517C99.682-20.7517 108.237-12.3875 108.237-8.12943C108.237-7.77885 108.092-7.48315 107.593-7.48315ZM85.1572-34.0744C94.9453-34.0744 102.7-42.4756 102.7-52.9846C102.7-63.1951 94.8306-71.5929 85.1572-71.5929C75.5183-71.5929 67.577-63.1605 67.6142-52.9616C67.6515-42.4641 75.3806-34.0744 85.1572-34.0744ZM85.1572-43.837C80.9886-43.837 77.4806-47.7214 77.4806-52.9989C77.4432-57.9031 81.0659-61.8304 85.1572-61.8304C89.2973-61.8304 92.8338-57.9262 92.8338-52.9846C92.8338-47.7818 89.3861-43.837 85.1572-43.837ZM19.6332 2.31677L48.1379 2.31677C45.143 0.43612 43.7039-3.95387 44.0572-7.29936L21.1098-7.29936C20.6446-7.29936 20.5124-7.60658 20.5124-7.89682C20.5124-14.2068 29.0191-20.947 39.8716-20.947C42.3149-20.947 46.4077-20.2057 48.3822-19.4925C49.8987-22.4697 52.1815-24.9648 55.5522-26.9662C51.0423-29.0867 44.6207-30.4884 39.8716-30.4884C23.2795-30.4884 9.76562-19.163 9.76562-6.41286C9.76562-0.813094 13.0338 2.31677 19.6332 2.31677ZM39.8832-33.2329C48.4391-33.2329 55.2919-40.646 55.2919-49.9084C55.2919-58.8867 48.3244-66.2938 39.8832-66.2938C31.4278-66.2938 24.4256-58.8148 24.4629-49.8969C24.5002-40.5971 31.3273-33.2329 39.8832-33.2329ZM39.8832-42.8232C36.7312-42.8232 34.0533-45.8402 34.0533-49.8969C34.0159-53.6205 36.7828-56.7034 39.8832-56.7034C42.9578-56.7034 45.7132-53.6436 45.7132-49.9084C45.7132-45.8402 43.0725-42.8232 39.8832-42.8232ZM150.655 2.31677C157.255 2.31677 160.523-0.813094 160.523-6.41286C160.523-19.163 147.009-30.4884 130.417-30.4884C125.668-30.4884 119.246-29.0867 114.737-26.9662C118.107-24.9648 120.389-22.4697 121.906-19.4925C123.893-20.2057 127.974-20.947 130.417-20.947C141.27-20.947 149.776-14.2068 149.776-7.89682C149.776-7.60658 149.644-7.29936 149.179-7.29936L126.231-7.29936C126.584-3.95387 125.145 0.43612 122.151 2.31677ZM130.405-33.2329C138.961-33.2329 145.788-40.5971 145.825-49.8969C145.863-58.8148 138.861-66.2938 130.405-66.2938C121.965-66.2938 114.997-58.8867 114.997-49.9084C114.997-40.646 121.849-33.2329 130.405-33.2329ZM130.405-42.8232C127.216-42.8232 124.576-45.8402 124.576-49.9084C124.576-53.6436 127.331-56.7034 130.405-56.7034C133.506-56.7034 136.272-53.6205 136.235-49.8969C136.235-45.8402 133.558-42.8232 130.405-42.8232Z"/>
  </g>
  <g id="Bold-S" transform="matrix(1 0 0 1 2255.53 696)">
   <path d="M61.1329 1.87989L107.764 1.87989C115.039 1.87989 118.628-0.561524 118.628-5.71289C118.628-17.0899 104.639-30.3467 84.4483-30.3467C64.2822-30.3467 50.2686-17.0899 50.2686-5.71289C50.2686-0.561524 53.8818 1.87989 61.1329 1.87989ZM60.8399-6.78711C60.3272-6.78711 60.1319-7.03125 60.1319-7.44628C60.1319-12.207 68.9697-21.6797 84.4483-21.6797C99.927-21.6797 108.765-12.207 108.765-7.44628C108.765-7.03125 108.57-6.78711 108.057-6.78711ZM84.4483-34.4482C94.043-34.4482 101.733-42.7978 101.733-53.1006C101.733-63.208 94.0186-71.3867 84.4483-71.3867C74.9512-71.3867 67.1387-63.1347 67.1631-53.0518C67.1875-42.7735 74.878-34.4482 84.4483-34.4482ZM84.4483-43.1152C79.9316-43.1152 76.0498-47.4121 76.0498-53.0762C76.0254-58.4961 79.9317-62.7198 84.4483-62.7198C89.0137-62.7198 92.8467-58.5449 92.8467-53.1006C92.8467-47.4854 89.0381-43.1152 84.4483-43.1152ZM19.0918 1.9043L47.8027 1.9043C45.1172 0.268555 43.6523-3.51562 44.0186-6.61622L19.6533-6.61622C19.2138-6.61622 19.043-6.88476 19.043-7.22656C19.043-14.4775 28.2715-21.875 39.5752-21.875C42.6758-21.875 46.7041-21.0693 49.1943-19.9952C50.6592-22.5342 52.7099-24.707 55.5909-26.4893C50.9521-28.9062 44.7754-30.3466 39.5752-30.3466C23.2666-30.3466 9.76562-18.9697 9.76562-6.10351C9.76562-0.903321 12.8662 1.9043 19.0918 1.9043ZM39.5996-33.5938C47.9493-33.5938 54.7119-40.9424 54.7119-50.0244C54.7119-58.8867 47.9248-66.1133 39.5996-66.1133C31.2989-66.1133 24.4385-58.789 24.4629-50C24.4873-40.8936 31.25-33.5938 39.5996-33.5938ZM39.5996-42.1143C36.0352-42.1143 32.9834-45.5566 32.9834-50C32.959-54.1748 36.0351-57.5927 39.5996-57.5927C43.164-57.5927 46.2158-54.2237 46.2158-50.0244C46.2158-45.5566 43.1885-42.1143 39.5996-42.1143ZM149.805 1.9043C156.03 1.9043 159.131-0.903321 159.131-6.10351C159.131-18.9697 145.63-30.3466 129.321-30.3466C124.121-30.3466 117.944-28.9062 113.306-26.4893C116.187-24.707 118.237-22.5342 119.702-19.9952C122.217-21.0693 126.221-21.875 129.321-21.875C140.625-21.875 149.853-14.4775 149.853-7.22656C149.853-6.88476 149.683-6.61622 149.243-6.61622L124.877-6.61622C125.244-3.51562 123.779 0.268555 121.094 1.9043ZM129.297-33.5938C137.647-33.5938 144.409-40.8936 144.434-50C144.458-58.789 137.597-66.1133 129.297-66.1133C120.972-66.1133 114.184-58.8867 114.184-50.0244C114.184-40.9424 120.947-33.5938 129.297-33.5938ZM129.297-42.1143C125.708-42.1143 122.681-45.5566 122.681-50.0244C122.681-54.2237 125.733-57.5927 129.297-57.5927C132.861-57.5927 135.938-54.1748 135.913-50C135.913-45.5566 132.861-42.1143 129.297-42.1143Z"/>
  </g>
  <g id="Semibold-S" transform="matrix(1 0 0 1 1959.3 696)">
   <path d="M60.5286 1.6044L107.39 1.6044C114.506 1.6044 117.962-0.677051 117.962-5.55293C117.962-16.45 104.444-30.2312 83.9595-30.2312C63.5091-30.2312 49.9575-16.45 49.9575-5.55293C49.9575-0.677051 53.4463 1.6044 60.5286 1.6044ZM59.5424-6.30723C59.0208-6.30723 58.7899-6.51582 58.7899-6.97529C58.7899-12.0826 67.8233-22.3195 83.9595-22.3195C100.096-22.3195 109.129-12.0826 109.129-6.97529C109.129-6.51582 108.898-6.30723 108.377-6.30723ZM83.9595-34.7059C93.4209-34.7059 101.067-43.02 101.067-53.1806C101.067-63.2169 93.4587-71.2445 83.9595-71.2445C74.5602-71.2445 66.8365-63.117 66.8521-53.114C66.8676-42.9867 74.5314-34.7059 83.9595-34.7059ZM83.9595-42.6175C79.2029-42.6175 75.0634-47.1988 75.0634-53.1295C75.0478-58.9048 79.1496-63.3329 83.9595-63.3329C88.8182-63.3329 92.8556-58.9715 92.8556-53.1806C92.8556-47.2809 88.7982-42.6175 83.9595-42.6175ZM18.7186 1.61993L47.5717 1.61993C45.0994 0.153028 43.6168-3.21348 43.9919-6.14522L18.6491-6.14522C18.2274-6.14522 18.0299-6.38711 18.0299-6.76445C18.0299-14.6641 27.7561-22.5148 39.3708-22.5148C42.9246-22.5148 46.9085-21.6648 49.7542-20.3417C51.1835-22.5786 53.0743-24.5293 55.6175-26.1604C50.8899-28.7819 44.8821-30.2489 39.3708-30.2489C23.2577-30.2489 9.76562-18.8364 9.76562-5.89023C9.76562-0.965528 12.7507 1.61993 18.7186 1.61993ZM39.4041-33.8426C47.6115-33.8426 54.312-41.1468 54.312-50.1044C54.312-58.8867 47.6493-65.9889 39.4041-65.9889C31.21-65.9889 24.4474-58.7713 24.4629-50.0711C24.4784-41.098 31.1967-33.8426 39.4041-33.8426ZM39.4041-41.6255C35.5553-41.6255 32.2458-45.3611 32.2458-50.0711C32.2302-54.5569 35.5197-58.2059 39.4041-58.2059C43.3062-58.2059 46.5624-54.6236 46.5624-50.1044C46.5624-45.3611 43.2685-41.6255 39.4041-41.6255ZM149.218 1.61993C155.186 1.61993 158.171-0.965528 158.171-5.89023C158.171-18.8364 144.679-30.2489 128.566-30.2489C123.054-30.2489 117.047-28.7819 112.32-26.1604C114.862-24.5293 116.753-22.5786 118.182-20.3417C121.062-21.6648 125.012-22.5148 128.566-22.5148C140.181-22.5148 149.907-14.6641 149.907-6.76445C149.907-6.38711 149.709-6.14522 149.287-6.14522L123.944-6.14522C124.32-3.21348 122.837 0.153028 120.365 1.61993ZM128.532-33.8426C136.74-33.8426 143.458-41.098 143.474-50.0711C143.489-58.7713 136.727-65.9889 128.532-65.9889C120.288-65.9889 113.624-58.8867 113.624-50.1044C113.624-41.1468 120.325-33.8426 128.532-33.8426ZM128.532-41.6255C124.668-41.6255 121.375-45.3611 121.375-50.1044C121.375-54.6236 124.63-58.2059 128.532-58.2059C132.417-58.2059 135.707-54.5569 135.691-50.0711C135.691-45.3611 132.382-41.6255 128.532-41.6255Z"/>
  </g>
  <g id="Medium-S" transform="matrix(1 0 0 1 1662.95 696)">
   <path d="M60.0704 1.39551L107.107 1.39551C114.101 1.39551 117.456-0.764648 117.456-5.43164C117.456-15.9648 104.295-30.1436 83.5889-30.1436C62.9228-30.1436 49.7217-15.9648 49.7217-5.43164C49.7217-0.764648 53.1162 1.39551 60.0704 1.39551ZM58.5586-5.94336C58.0303-5.94336 57.7725-6.125 57.7725-6.61816C57.7725-11.9882 66.9541-22.8047 83.5889-22.8047C100.224-22.8047 109.406-11.9882 109.406-6.61816C109.406-6.125 109.148-5.94336 108.62-5.94336ZM83.5889-34.9013C92.9492-34.9013 100.561-43.1885 100.561-53.2412C100.561-63.2236 93.0342-71.1367 83.5889-71.1367C74.2637-71.1367 66.6074-63.1035 66.6162-53.1612C66.625-43.1485 74.2686-34.9013 83.5889-34.9013ZM83.5889-42.2402C78.6504-42.2402 74.3154-47.0371 74.3154-53.17C74.3066-59.2148 78.5566-63.7979 83.5889-63.7979C88.67-63.7979 92.8623-59.2949 92.8623-53.2412C92.8623-47.126 88.6162-42.2402 83.5889-42.2402ZM18.4355 1.4043L47.3965 1.4043C45.086 0.0654298 43.5899-2.98438 43.9717-5.78809L17.8877-5.78809C17.4795-5.78809 17.2618-6.00977 17.2618-6.41406C17.2618-14.8056 27.3653-23 39.2158-23C43.1133-23 47.0635-22.1162 50.1787-20.6045C51.5811-22.6123 53.3506-24.3946 55.6377-25.9111C50.8427-28.6875 44.9629-30.1748 39.2158-30.1748C23.251-30.1748 9.76562-18.7353 9.76562-5.72852C9.76562-1.0127 12.6631 1.4043 18.4355 1.4043ZM39.2559-34.0312C47.3555-34.0312 54.0088-41.3018 54.0088-50.165C54.0088-58.8867 47.4404-65.8945 39.2559-65.8945C31.1426-65.8945 24.4541-58.7578 24.4629-50.125C24.4717-41.2529 31.1562-34.0312 39.2559-34.0312ZM39.2559-41.2549C35.1914-41.2549 31.6865-45.2129 31.6865-50.125C31.6777-54.8467 35.1289-58.6709 39.2559-58.6709C43.4141-58.6709 46.8252-54.9268 46.8252-50.165C46.8252-45.2129 43.3291-41.2549 39.2559-41.2549ZM148.773 1.4043C154.546 1.4043 157.443-1.0127 157.443-5.72852C157.443-18.7353 143.958-30.1748 127.993-30.1748C122.246-30.1748 116.367-28.6875 111.572-25.9111C113.858-24.3946 115.628-22.6123 117.03-20.6045C120.186-22.1162 124.095-23 127.993-23C139.844-23 149.947-14.8056 149.947-6.41406C149.947-6.00977 149.73-5.78809 149.321-5.78809L123.237-5.78809C123.619-2.98438 122.123 0.0654298 119.813 1.4043ZM127.953-34.0312C136.053-34.0312 142.737-41.2529 142.746-50.125C142.755-58.7578 136.066-65.8945 127.953-65.8945C119.769-65.8945 113.2-58.8867 113.2-50.165C113.2-41.3018 119.853-34.0312 127.953-34.0312ZM127.953-41.2549C123.88-41.2549 120.384-45.2129 120.384-50.165C120.384-54.9268 123.795-58.6709 127.953-58.6709C132.08-58.6709 135.531-54.8467 135.523-50.125C135.523-45.2129 132.018-41.2549 127.953-41.2549Z"/>
  </g>
  <g id="Regular-S" transform="matrix(1 0 0 1 1366.71 696)">
   <path d="M59.4727 1.12305L106.738 1.12305C113.574 1.12305 116.797-0.878906 116.797-5.27344C116.797-15.332 104.102-30.0293 83.1055-30.0293C62.1582-30.0293 49.4141-15.332 49.4141-5.27344C49.4141-0.878906 52.6855 1.12305 59.4727 1.12305ZM57.2754-5.46875C56.7383-5.46875 56.4453-5.61523 56.4453-6.15234C56.4453-11.8652 65.8203-23.4375 83.1055-23.4375C100.391-23.4375 109.766-11.8652 109.766-6.15234C109.766-5.61523 109.473-5.46875 108.936-5.46875ZM83.1055-35.1562C92.334-35.1562 99.9023-43.4082 99.9023-53.3203C99.9023-63.2324 92.4805-70.9961 83.1055-70.9961C73.877-70.9961 66.3086-63.0859 66.3086-53.2227C66.3086-43.3594 73.9258-35.1562 83.1055-35.1562ZM83.1055-41.748C77.9297-41.748 73.3398-46.8262 73.3398-53.2227C73.3398-59.6191 77.7832-64.4043 83.1055-64.4043C88.4766-64.4043 92.8711-59.7168 92.8711-53.3203C92.8711-46.9238 88.3789-41.748 83.1055-41.748ZM18.0664 1.12305L47.168 1.12305C45.0684-0.0488281 43.5547-2.68555 43.9453-5.32227L16.8945-5.32227C16.5039-5.32227 16.2598-5.51758 16.2598-5.95703C16.2598-14.9902 26.8555-23.6328 39.0137-23.6328C43.3594-23.6328 47.2656-22.7051 50.7324-20.9473C52.0996-22.6562 53.7109-24.2188 55.6641-25.5859C50.7812-28.5645 45.0684-30.0781 39.0137-30.0781C23.2422-30.0781 9.76562-18.6035 9.76562-5.51758C9.76562-1.07422 12.5488 1.12305 18.0664 1.12305ZM39.0625-34.2773C47.0215-34.2773 53.6133-41.5039 53.6133-50.2441C53.6133-58.8867 47.168-65.7715 39.0625-65.7715C31.0547-65.7715 24.4629-58.7402 24.4629-50.1953C24.4629-41.4551 31.1035-34.2773 39.0625-34.2773ZM39.0625-40.7715C34.7168-40.7715 30.957-45.0195 30.957-50.1953C30.957-55.2246 34.6191-59.2773 39.0625-59.2773C43.5547-59.2773 47.168-55.3223 47.168-50.2441C47.168-45.0195 43.4082-40.7715 39.0625-40.7715ZM148.193 1.12305C153.711 1.12305 156.494-1.07422 156.494-5.51758C156.494-18.6035 143.018-30.0781 127.246-30.0781C121.191-30.0781 115.479-28.5645 110.596-25.5859C112.549-24.2188 114.16-22.6562 115.527-20.9473C119.043-22.7051 122.9-23.6328 127.246-23.6328C139.404-23.6328 150-14.9902 150-5.95703C150-5.51758 149.756-5.32227 149.365-5.32227L122.314-5.32227C122.705-2.68555 121.191-0.0488281 119.092 1.12305ZM127.197-34.2773C135.156-34.2773 141.797-41.4551 141.797-50.1953C141.797-58.7402 135.205-65.7715 127.197-65.7715C119.092-65.7715 112.646-58.8867 112.646-50.2441C112.646-41.5039 119.238-34.2773 127.197-34.2773ZM127.197-40.7715C122.852-40.7715 119.092-45.0195 119.092-50.2441C119.092-55.3223 122.705-59.2773 127.197-59.2773C131.641-59.2773 135.303-55.2246 135.303-50.1953C135.303-45.0195 131.543-40.7715 127.197-40.7715Z"/>
  </g>
  <g id="Light-S" transform="matrix(1 0 0 1 1070.41 696)">
   <path d="M58.292 0.578131L107.041 0.578131C113.029 0.578131 115.858-1.25732 115.858-5.28858C115.858-15.2866 103.269-29.6509 82.6665-29.6509C62.1128-29.6509 49.4898-15.2866 49.4898-5.28858C49.4898-1.25732 52.3525 0.578131 58.292 0.578131ZM56.791-4.54542C55.4214-4.54542 54.9165-4.87354 54.9165-5.89502C54.9165-12.6826 64.897-24.5425 82.6665-24.5425C100.451-24.5425 110.432-12.6826 110.432-5.89502C110.432-4.87354 109.927-4.54542 108.542-4.54542ZM82.6968-35.0957C91.7285-35.0957 98.9941-43.0449 98.9941-52.8511C98.9941-62.5059 91.7539-70.1787 82.6968-70.1787C73.7408-70.1787 66.3843-62.3896 66.4146-52.7837C66.4448-43.0264 73.7139-35.0957 82.6968-35.0957ZM82.6968-40.2192C76.7945-40.2192 71.8413-45.7212 71.8413-52.7837C71.811-59.6797 76.7539-65.0552 82.6968-65.0552C88.6734-65.0552 93.5674-59.7622 93.5674-52.8511C93.5674-45.7886 88.6665-40.2192 82.6968-40.2192ZM17.1431 0.578131L47.9248 0.578131C46.2793-0.321287 44.9927-2.35254 45.126-4.42921L16.3496-4.42921C15.2778-4.42921 14.8218-4.83643 14.8218-5.85107C14.8218-15.7168 25.7959-24.7378 38.5899-24.7378C43.8286-24.7378 48.5219-23.4165 52.3823-20.9019C53.477-22.2021 54.7251-23.4014 56.2241-24.4658C51.205-27.9439 45.1289-29.7451 38.5899-29.7451C22.3794-29.7451 9.76562-17.9678 9.76562-5.54785C9.76562-1.4375 12.2309 0.578131 17.1431 0.578131ZM38.6538-34.2319C46.4766-34.2319 52.8111-41.186 52.8111-49.8052C52.8111-58.2207 46.502-64.9995 38.6538-64.9995C30.8731-64.9995 24.4629-58.1045 24.4932-49.7715C24.5234-41.1524 30.8462-34.2319 38.6538-34.2319ZM38.6538-39.2881C33.6572-39.2881 29.5493-43.9145 29.5493-49.7715C29.5493-55.3608 33.6504-59.9433 38.6538-59.9433C43.6909-59.9433 47.7886-55.4434 47.7886-49.8052C47.7886-43.9145 43.6504-39.2881 38.6538-39.2881ZM148.299 0.578131C153.211 0.578131 155.677-1.4375 155.677-5.54785C155.677-17.9678 143.063-29.7451 126.837-29.7451C120.313-29.7451 114.238-27.9439 109.218-24.4658C110.702-23.4014 111.965-22.2021 113.045-20.9019C116.954-23.4165 121.614-24.7378 126.837-24.7378C139.631-24.7378 150.621-15.7168 150.621-5.85107C150.621-4.83643 150.165-4.42921 149.093-4.42921L120.316-4.42921C120.45-2.35254 119.163-0.321287 117.518 0.578131ZM126.773-34.2319C134.596-34.2319 140.919-41.1524 140.949-49.7715C140.98-58.1045 134.569-64.9995 126.773-64.9995C118.941-64.9995 112.631-58.2207 112.631-49.8052C112.631-41.186 118.966-34.2319 126.773-34.2319ZM126.773-39.2881C121.777-39.2881 117.654-43.9145 117.654-49.8052C117.654-55.4434 121.751-59.9433 126.773-59.9433C131.792-59.9433 135.893-55.3608 135.893-49.7715C135.893-43.9145 131.77-39.2881 126.773-39.2881Z"/>
  </g>
  <g id="Thin-S" transform="matrix(1 0 0 1 774.241 696)">
   <path d="M56.7305-0.142568L107.441-0.142568C112.308-0.142568 114.617-1.7578 114.617-5.3086C114.617-15.2266 102.168-29.1504 82.086-29.1504C62.0528-29.1504 49.5898-15.2266 49.5898-5.3086C49.5898-1.7578 51.9121-0.142568 56.7305-0.142568ZM56.1504-3.32423C53.6797-3.32423 52.8945-3.89259 52.8945-5.55469C52.8945-13.7637 63.6758-26.0039 82.086-26.0039C100.531-26.0039 111.313-13.7637 111.313-5.55469C111.313-3.89259 110.527-3.32423 108.022-3.32423ZM82.1563-35.0156C90.9278-35.0156 97.793-42.5645 97.793-52.2305C97.793-61.545 90.793-69.0977 82.1563-69.0977C73.5606-69.0977 66.4843-61.4688 66.5547-52.2032C66.625-42.586 73.4336-35.0156 82.1563-35.0156ZM82.1563-38.1973C75.293-38.1973 69.8594-44.2598 69.8594-52.2032C69.7891-59.7598 75.3926-65.916 82.1563-65.916C88.9336-65.916 94.4882-59.8222 94.4882-52.2305C94.4882-44.2871 89.0469-38.1973 82.1563-38.1973ZM15.9219-0.142568L48.9258-0.142568C47.8808-0.681636 46.8945-1.91212 46.6875-3.24807L15.6289-3.24807C13.6563-3.24807 12.9199-3.93556 12.9199-5.71094C12.9199-16.6777 24.3946-26.1992 38.0293-26.1992C44.4492-26.1992 50.1835-24.3574 54.5644-20.8418C55.2988-21.6016 56.0664-22.3203 56.9648-22.9844C51.7656-27.1231 45.209-29.3047 38.0293-29.3047C21.2383-29.3047 9.76562-17.127 9.76562-5.58789C9.76562-1.91796 11.8105-0.142568 15.9219-0.142568ZM38.1133-34.1719C45.7558-34.1719 51.75-40.7656 51.75-49.2246C51.75-57.3399 45.6211-63.9785 38.1133-63.9785C30.6328-63.9785 24.4629-57.2637 24.5332-49.2109C24.6035-40.752 30.5058-34.1719 38.1133-34.1719ZM38.1133-37.3262C32.2559-37.3262 27.6875-42.4531 27.6875-49.2109C27.6875-55.541 32.3691-60.8242 38.1133-60.8242C43.8711-60.8242 48.6094-55.6035 48.6094-49.2246C48.6094-42.4531 43.9707-37.3262 38.1133-37.3262ZM148.439-0.142568C152.55-0.142568 154.596-1.91796 154.596-5.58789C154.596-17.127 143.123-29.3047 126.297-29.3047C119.153-29.3047 112.596-27.1231 107.396-22.9844C108.26-22.3203 109.063-21.6016 109.762-20.8418C114.191-24.3574 119.912-26.1992 126.297-26.1992C139.931-26.1992 151.442-16.6777 151.442-5.71094C151.442-3.93556 150.705-3.24807 148.732-3.24807L117.673-3.24807C117.467-1.91212 116.48-0.681636 115.435-0.142568ZM126.213-34.1719C133.855-34.1719 139.758-40.752 139.828-49.2109C139.899-57.2637 133.729-63.9785 126.213-63.9785C118.741-63.9785 112.611-57.3399 112.611-49.2246C112.611-40.7656 118.605-34.1719 126.213-34.1719ZM126.213-37.3262C120.355-37.3262 115.752-42.4531 115.752-49.2246C115.752-55.6035 120.49-60.8242 126.213-60.8242C131.992-60.8242 136.674-55.541 136.674-49.2109C136.674-42.4531 132.07-37.3262 126.213-37.3262Z"/>
  </g>
  <g id="Ultralight-S" transform="matrix(1 0 0 1 477.807 696)">
   <path d="M55.9307-0.511706L107.646-0.511706C111.939-0.511706 113.981-2.01415 113.981-5.31885C113.981-15.1958 101.604-28.8941 81.7886-28.8941C62.022-28.8941 49.6411-15.1958 49.6411-5.31885C49.6411-2.01415 51.6865-0.511706 55.9307-0.511706ZM55.8223-2.69875C52.7876-2.69875 51.8589-3.39015 51.8589-5.38038C51.8589-14.3174 63.0503-26.7524 81.7886-26.7524C100.572-26.7524 111.764-14.3174 111.764-5.38038C111.764-3.39015 110.835-2.69875 107.755-2.69875ZM81.8794-34.9746C90.5176-34.9746 97.1778-42.3184 97.1778-51.9126C97.1778-61.0528 90.3008-68.544 81.8794-68.544C73.4683-68.544 66.5356-60.9971 66.6265-51.9058C66.7173-42.3604 73.29-34.9746 81.8794-34.9746ZM81.8794-37.1617C74.524-37.1617 68.8443-43.5113 68.8443-51.9058C68.7535-59.8008 74.6953-66.3569 81.8794-66.3569C89.0669-66.3569 94.9599-59.853 94.9599-51.9126C94.9599-43.5181 89.2417-37.1617 81.8794-37.1617ZM15.2964-0.511706L49.4385-0.511706C48.7011-0.866205 47.8686-1.68653 47.4873-2.64309L15.2598-2.64309C12.8257-2.64309 11.9458-3.47414 11.9458-5.63916C11.9458-17.1699 23.6768-26.9477 37.7422-26.9477C44.7671-26.9477 51.0346-24.8393 55.6821-20.811C56.2319-21.294 56.7534-21.7666 57.3442-22.2256C52.0527-26.7027 45.25-29.0791 37.7422-29.0791C20.6538-29.0791 9.76562-16.6963 9.76562-5.6084C9.76562-2.16405 11.5952-0.511706 15.2964-0.511706ZM37.8364-34.1411C45.3867-34.1411 51.2066-40.5503 51.2066-48.9273C51.2066-56.8887 45.1699-63.4556 37.8364-63.4556C30.5098-63.4556 24.4629-56.833 24.5537-48.9238C24.6445-40.5469 30.3315-34.1411 37.8364-34.1411ZM37.8364-36.3213C31.5381-36.3213 26.7339-41.7046 26.7339-48.9238C26.7339-55.6333 31.7129-61.2754 37.8364-61.2754C43.9634-61.2754 49.0298-55.6855 49.0298-48.9273C49.0298-41.7046 44.1348-36.3213 37.8364-36.3213ZM148.511-0.511706C152.212-0.511706 154.042-2.16405 154.042-5.6084C154.042-16.6963 143.154-29.0791 126.02-29.0791C118.558-29.0791 111.755-26.7027 106.463-22.2256C107.009-21.7666 107.576-21.294 108.08-20.811C112.776-24.8393 119.041-26.9477 126.02-26.9477C140.085-26.9477 151.862-17.1699 151.862-5.63916C151.862-3.47414 150.982-2.64309 148.548-2.64309L116.32-2.64309C115.939-1.68653 115.106-0.866205 114.369-0.511706ZM125.926-34.1411C133.476-34.1411 139.163-40.5469 139.254-48.9238C139.345-56.833 133.298-63.4556 125.926-63.4556C118.638-63.4556 112.601-56.8887 112.601-48.9273C112.601-40.5503 118.421-34.1411 125.926-34.1411ZM125.926-36.3213C119.627-36.3213 114.778-41.7046 114.778-48.9273C114.778-55.6855 119.844-61.2754 125.926-61.2754C132.095-61.2754 137.074-55.6333 137.074-48.9238C137.074-41.7046 132.224-36.3213 125.926-36.3213Z"/>
  </g>
 </g>
</svg>
